<?xml version="1.0" encoding="UTF-8"?>
<!DOCTYPE svg PUBLIC "-//W3C//DTD SVG 1.1//EN" "http://www.w3.org/Graphics/SVG/1.1/DTD/svg11.dtd">
<!-- Creator: CorelDRAW -->
<svg xmlns="http://www.w3.org/2000/svg" xml:space="preserve" width="176px" height="176px" version="1.1" shape-rendering="geometricPrecision" text-rendering="geometricPrecision" image-rendering="optimizeQuality" fill-rule="evenodd" clip-rule="evenodd"
viewBox="0 0 7.65 7.65"
 xmlns:xlink="http://www.w3.org/1999/xlink"
 xmlns:xodm="http://www.corel.com/coreldraw/odm/2003">
 <defs>
   <clipPath id="id0">
    <path d="M1.1 0.18l5.45 0c0.51,0 0.92,0.42 0.92,0.92l0 5.45c0,0.51 -0.41,0.92 -0.92,0.92l-5.45 0c-0.5,0 -0.92,-0.41 -0.92,-0.92l0 -5.45c0,-0.5 0.42,-0.92 0.92,-0.92z"/>
   </clipPath>
 </defs>
 <g id="Layer_x0020_1">
  <metadata id="CorelCorpID_0Corel-Layer"/>
  <path fill="#4285C5" d="M1.1 0.18l5.45 0c0.51,0 0.92,0.42 0.92,0.92l0 5.45c0,0.51 -0.41,0.92 -0.92,0.92l-5.45 0c-0.5,0 -0.92,-0.41 -0.92,-0.92l0 -5.45c0,-0.5 0.42,-0.92 0.92,-0.92z"/>
  <g clip-path="url(#id0)">
   <g id="_1958964317024">
    <polygon id="_1" fill="white" fill-opacity="0.250980" points="-2.77,4.34 10.57,4.34 10.57,8.08 -2.77,8.08 "/>
   </g>
  </g>
  <path fill="none" stroke="#6633FF" stroke-width="0.36" stroke-miterlimit="2.61313" d="M1.1 0.18l5.45 0c0.51,0 0.92,0.42 0.92,0.92l0 5.45c0,0.51 -0.41,0.92 -0.92,0.92l-5.45 0c-0.5,0 -0.92,-0.41 -0.92,-0.92l0 -5.45c0,-0.5 0.42,-0.92 0.92,-0.92z"/>
 </g>
</svg>
