<?xml version="1.0" encoding="UTF-8"?>
<!DOCTYPE svg PUBLIC "-//W3C//DTD SVG 1.1//EN" "http://www.w3.org/Graphics/SVG/1.1/DTD/svg11.dtd">
<!-- Creator: CorelDRAW -->
<svg xmlns="http://www.w3.org/2000/svg" xml:space="preserve" width="176px" height="176px" version="1.1" shape-rendering="geometricPrecision" text-rendering="geometricPrecision" image-rendering="optimizeQuality" fill-rule="evenodd" clip-rule="evenodd"
viewBox="0 0 8.51 8.51"
 xmlns:xlink="http://www.w3.org/1999/xlink"
 xmlns:xodm="http://www.corel.com/coreldraw/odm/2003">
 <defs>
   <clipPath id="id0">
    <path d="M1.23 0.2l6.06 0c0.56,0 1.02,0.46 1.02,1.03l0 6.06c0,0.56 -0.46,1.02 -1.02,1.02l-6.06 0c-0.57,0 -1.03,-0.46 -1.03,-1.02l0 -6.06c0,-0.57 0.46,-1.03 1.03,-1.03z"/>
   </clipPath>
 </defs>
 <g id="Layer_x0020_1">
  <metadata id="CorelCorpID_0Corel-Layer"/>
  <path fill="#4285C5" d="M1.23 0.2l6.06 0c0.56,0 1.02,0.46 1.02,1.03l0 6.06c0,0.56 -0.46,1.02 -1.02,1.02l-6.06 0c-0.57,0 -1.03,-0.46 -1.03,-1.02l0 -6.06c0,-0.57 0.46,-1.03 1.03,-1.03z"/>
  <g clip-path="url(#id0)">
   <g id="_1959113679568">
    <polygon id="_1" fill="white" fill-opacity="0.250980" points="-3.08,4.82 11.76,4.82 11.76,8.99 -3.08,8.99 "/>
    <polygon fill="white" fill-opacity="0.149020" points="-0.52,-0.3 9.03,-0.3 9.03,8.81 -0.52,8.81 "/>
   </g>
  </g>
  <path fill="none" stroke="#7C51FC" stroke-width="0.4" stroke-miterlimit="2.61313" d="M1.23 0.2l6.06 0c0.56,0 1.02,0.46 1.02,1.03l0 6.06c0,0.56 -0.46,1.02 -1.02,1.02l-6.06 0c-0.57,0 -1.03,-0.46 -1.03,-1.02l0 -6.06c0,-0.57 0.46,-1.03 1.03,-1.03z"/>
 </g>
</svg>
