<?xml version="1.0" encoding="UTF-8"?>
<!DOCTYPE svg PUBLIC "-//W3C//DTD SVG 1.1//EN" "http://www.w3.org/Graphics/SVG/1.1/DTD/svg11.dtd">
<!-- Creator: CorelDRAW -->
<svg xmlns="http://www.w3.org/2000/svg" xml:space="preserve" width="176px" height="176px" version="1.1" shape-rendering="geometricPrecision" text-rendering="geometricPrecision" image-rendering="optimizeQuality" fill-rule="evenodd" clip-rule="evenodd"
viewBox="0 0 10.97 10.97"
 xmlns:xlink="http://www.w3.org/1999/xlink"
 xmlns:xodm="http://www.corel.com/coreldraw/odm/2003">
 <defs>
   <clipPath id="id0">
    <path d="M1.58 0.26l7.81 0c0.73,0 1.32,0.59 1.32,1.32l0 7.81c0,0.73 -0.59,1.32 -1.32,1.32l-7.81 0c-0.73,0 -1.32,-0.59 -1.32,-1.32l0 -7.81c0,-0.73 0.59,-1.32 1.32,-1.32z"/>
   </clipPath>
 </defs>
 <g id="Layer_x0020_1">
  <metadata id="CorelCorpID_0Corel-Layer"/>
  <path fill="gray" d="M1.58 0.26l7.81 0c0.73,0 1.32,0.59 1.32,1.32l0 7.81c0,0.73 -0.59,1.32 -1.32,1.32l-7.81 0c-0.73,0 -1.32,-0.59 -1.32,-1.32l0 -7.81c0,-0.73 0.59,-1.32 1.32,-1.32z"/>
  <g clip-path="url(#id0)">
   <g id="_1958964100288">
    <polygon id="_1" fill="white" fill-opacity="0.250980" points="-3.97,6.22 15.16,6.22 15.16,11.59 -3.97,11.59 "/>
   </g>
  </g>
  <path fill="none" stroke="#333333" stroke-width="0.52" stroke-miterlimit="2.61313" d="M1.58 0.26l7.81 0c0.73,0 1.32,0.59 1.32,1.32l0 7.81c0,0.73 -0.59,1.32 -1.32,1.32l-7.81 0c-0.73,0 -1.32,-0.59 -1.32,-1.32l0 -7.81c0,-0.73 0.59,-1.32 1.32,-1.32z"/>
 </g>
</svg>
