<?xml version="1.0" encoding="UTF-8"?>
<!DOCTYPE svg PUBLIC "-//W3C//DTD SVG 1.1//EN" "http://www.w3.org/Graphics/SVG/1.1/DTD/svg11.dtd">
<!-- Creator: CorelDRAW -->
<svg xmlns="http://www.w3.org/2000/svg" xml:space="preserve" width="176px" height="176px" version="1.1" shape-rendering="geometricPrecision" text-rendering="geometricPrecision" image-rendering="optimizeQuality" fill-rule="evenodd" clip-rule="evenodd"
viewBox="0 0 9.58 9.58"
 xmlns:xlink="http://www.w3.org/1999/xlink"
 xmlns:xodm="http://www.corel.com/coreldraw/odm/2003">
 <defs>
   <clipPath id="id0">
    <path d="M1.38 0.23l6.82 0c0.64,0 1.16,0.52 1.16,1.15l0 6.82c0,0.64 -0.52,1.16 -1.16,1.16l-6.82 0c-0.63,0 -1.15,-0.52 -1.15,-1.16l0 -6.82c0,-0.63 0.52,-1.15 1.15,-1.15z"/>
   </clipPath>
 </defs>
 <g id="Layer_x0020_1">
  <metadata id="CorelCorpID_0Corel-Layer"/>
  <path fill="#4285C5" d="M1.38 0.23l6.82 0c0.64,0 1.16,0.52 1.16,1.15l0 6.82c0,0.64 -0.52,1.16 -1.16,1.16l-6.82 0c-0.63,0 -1.15,-0.52 -1.15,-1.16l0 -6.82c0,-0.63 0.52,-1.15 1.15,-1.15z"/>
  <g clip-path="url(#id0)">
   <g id="_1958339241552">
    <polygon id="_1" fill="white" fill-opacity="0.250980" points="-3.47,5.43 13.24,5.43 13.24,10.12 -3.47,10.12 "/>
    <polygon fill="black" fill-opacity="0.149020" points="-0.58,-0.34 10.16,-0.34 10.16,9.92 -0.58,9.92 "/>
   </g>
  </g>
  <path fill="none" stroke="#5226D4" stroke-width="0.45" stroke-miterlimit="2.61313" d="M1.38 0.23l6.82 0c0.64,0 1.16,0.52 1.16,1.15l0 6.82c0,0.64 -0.52,1.16 -1.16,1.16l-6.82 0c-0.63,0 -1.15,-0.52 -1.15,-1.16l0 -6.82c0,-0.63 0.52,-1.15 1.15,-1.15z"/>
 </g>
</svg>
