<?xml version="1.0" encoding="UTF-8"?>
<!DOCTYPE svg PUBLIC "-//W3C//DTD SVG 1.1//EN" "http://www.w3.org/Graphics/SVG/1.1/DTD/svg11.dtd">
<!-- Creator: CorelDRAW -->
<svg xmlns="http://www.w3.org/2000/svg" xml:space="preserve" width="985px" height="512px" version="1.1" shape-rendering="geometricPrecision" text-rendering="geometricPrecision" image-rendering="optimizeQuality" fill-rule="evenodd" clip-rule="evenodd"
viewBox="0 0 599.01 311.34"
 xmlns:xlink="http://www.w3.org/1999/xlink"
 xmlns:xodm="http://www.corel.com/coreldraw/odm/2003">
 <defs>
   <clipPath id="id0">
    <path d="M29.3 13.5l540.64 0c9.74,0 17.7,7.97 17.7,17.71l0 252.97c0,9.73 -7.96,17.7 -17.7,17.7l-540.64 0c-9.74,0 -17.7,-7.97 -17.7,-17.7l0 -252.97c0,-9.74 7.96,-17.71 17.7,-17.71z"/>
   </clipPath>
 </defs>
 <g id="Layer_x0020_1">
  <metadata id="CorelCorpID_0Corel-Layer"/>
  <path fill="#336666" d="M29.19 0l540.63 0c16.06,0 29.19,13.13 29.19,29.19l0 252.97c0,16.05 -13.13,29.18 -29.19,29.18l-540.63 0c-16.06,0 -29.19,-13.13 -29.19,-29.18l0 -252.97c0,-16.06 13.13,-29.19 29.19,-29.19z"/>
  <path fill="#74997F" d="M29.3 13.5l540.64 0c9.74,0 17.7,7.97 17.7,17.71l0 252.97c0,9.73 -7.96,17.7 -17.7,17.7l-540.64 0c-9.74,0 -17.7,-7.97 -17.7,-17.7l0 -252.97c0,-9.74 7.96,-17.71 17.7,-17.71z"/>
  <g clip-path="url(#id0)">
   <g id="_2725457912096">
    <polygon id="_1" fill="white" fill-opacity="0.278431" points="-59.14,166.13 680.64,166.13 680.64,338.5 -59.14,338.5 "/>
   </g>
  </g>
  <path fill="none" d="M29.3 13.5l540.64 0c9.74,0 17.7,7.97 17.7,17.71l0 252.97c0,9.73 -7.96,17.7 -17.7,17.7l-540.64 0c-9.74,0 -17.7,-7.97 -17.7,-17.7l0 -252.97c0,-9.74 7.96,-17.71 17.7,-17.71z"/>
 </g>
</svg>
