<?xml version="1.0" encoding="UTF-8"?>
<!DOCTYPE svg PUBLIC "-//W3C//DTD SVG 1.1//EN" "http://www.w3.org/Graphics/SVG/1.1/DTD/svg11.dtd">
<!-- Creator: CorelDRAW -->
<svg xmlns="http://www.w3.org/2000/svg" xml:space="preserve" width="267px" height="227px" version="1.1" style="shape-rendering:geometricPrecision; text-rendering:geometricPrecision; image-rendering:optimizeQuality; fill-rule:evenodd; clip-rule:evenodd"
viewBox="0 0 90.25 76.75"
 xmlns:xlink="http://www.w3.org/1999/xlink"
 xmlns:xodm="http://www.corel.com/coreldraw/odm/2003">
 <defs>
  <style type="text/css">
   <![CDATA[
    .str0 {stroke:#FFFF99;stroke-width:0.3;stroke-miterlimit:2.61313}
    .fil0 {fill:#339966}
    .fil1 {fill:#99CC33}
    .fil2 {fill:#FFFF99}
   ]]>
  </style>
 </defs>
 <g id="Layer_x0020_1">
  <metadata id="CorelCorpID_0Corel-Layer"/>
  <g id="_1677590948608">
   <rect class="fil0" x="34.55" y="22.65" width="21.64" height="54.1"/>
   <path class="fil1" d="M45.12 13.2c0,-19.39 18.26,-16.03 5.93,1.09 12.33,-17.12 30.59,-13.77 5.92,1.08 24.67,-14.85 34.38,-6.34 3.15,2.76 31.23,-9.1 40.95,-0.6 3.16,2.76 37.79,-3.36 34.42,6.3 -1.1,3.14 35.52,3.16 32.14,12.83 -1.09,3.14 33.23,9.69 18.35,15.99 -4.83,2.04 23.18,13.95 8.29,20.26 -4.83,2.05 13.12,18.21 -6.31,18.21 -6.31,0 0,18.21 -19.43,18.21 -6.3,0 -13.13,18.21 -28.01,11.9 -4.83,-2.05 -23.18,13.95 -38.07,7.65 -4.83,-2.04 -33.24,9.69 -36.61,0.02 -1.1,-3.14 -35.51,3.16 -38.88,-6.5 -1.09,-3.14 -37.79,-3.36 -28.08,-11.86 3.15,-2.76 -31.23,-9.1 -21.51,-17.61 3.15,-2.76 -24.66,-14.85 -6.41,-18.2 5.93,-1.08 -12.34,-17.12 5.92,-20.48 5.92,-1.09z"/>
   <ellipse class="fil2 str0" cx="45.37" cy="22.65" rx="10.82" ry="5.41"/>
  </g>
 </g>
</svg>
