<?xml version="1.0" encoding="UTF-8"?>
<!DOCTYPE svg PUBLIC "-//W3C//DTD SVG 1.1//EN" "http://www.w3.org/Graphics/SVG/1.1/DTD/svg11.dtd">
<!-- Creator: CorelDRAW -->
<svg xmlns="http://www.w3.org/2000/svg" xml:space="preserve" width="267px" height="227px" version="1.1" style="shape-rendering:geometricPrecision; text-rendering:geometricPrecision; image-rendering:optimizeQuality; fill-rule:evenodd; clip-rule:evenodd"
viewBox="0 0 47.19 40.13"
 xmlns:xlink="http://www.w3.org/1999/xlink"
 xmlns:xodm="http://www.corel.com/coreldraw/odm/2003">
 <defs>
  <style type="text/css">
   <![CDATA[
    .str0 {stroke:#FFFF99;stroke-width:0.16;stroke-miterlimit:2.61313}
    .fil0 {fill:#339966}
    .fil1 {fill:#FF6633}
    .fil2 {fill:#FFFF99}
   ]]>
  </style>
 </defs>
 <g id="Layer_x0020_1">
  <metadata id="CorelCorpID_0Corel-Layer"/>
  <g id="_1677360453392">
   <rect class="fil0" x="18.07" y="11.84" width="11.32" height="28.29"/>
   <path class="fil1" d="M23.59 6.9c0,-10.14 9.55,-8.38 3.1,0.57 6.45,-8.95 16,-7.2 3.1,0.57 12.9,-7.77 17.98,-3.32 1.65,1.44 16.33,-4.76 21.41,-0.31 1.65,1.44 19.76,-1.75 18,3.3 -0.57,1.64 18.57,1.66 16.8,6.71 -0.58,1.64 17.38,5.07 9.6,8.37 -2.52,1.07 12.12,7.3 4.33,10.6 -2.53,1.08 6.86,9.52 -3.3,9.52 -3.3,0 0,9.52 -10.16,9.52 -3.29,0 -6.87,9.52 -14.65,6.22 -2.53,-1.08 -12.12,7.3 -19.9,4 -2.52,-1.07 -17.38,5.07 -19.15,0.02 -0.58,-1.64 -18.57,1.66 -20.33,-3.39 -0.57,-1.64 -19.76,-1.75 -14.68,-6.2 1.65,-1.44 -16.33,-4.76 -11.25,-9.21 1.65,-1.44 -12.9,-7.77 -3.35,-9.52 3.1,-0.57 -6.45,-8.95 3.09,-10.71 3.09,-0.57z"/>
   <ellipse class="fil2 str0" cx="23.72" cy="11.84" rx="5.66" ry="2.83"/>
  </g>
 </g>
</svg>
