<?xml version="1.0" encoding="UTF-8"?>
<!DOCTYPE svg PUBLIC "-//W3C//DTD SVG 1.1//EN" "http://www.w3.org/Graphics/SVG/1.1/DTD/svg11.dtd">
<!-- Creator: CorelDRAW -->
<svg xmlns="http://www.w3.org/2000/svg" xml:space="preserve" width="267px" height="227px" version="1.1" style="shape-rendering:geometricPrecision; text-rendering:geometricPrecision; image-rendering:optimizeQuality; fill-rule:evenodd; clip-rule:evenodd"
viewBox="0 0 39.72 33.78"
 xmlns:xlink="http://www.w3.org/1999/xlink"
 xmlns:xodm="http://www.corel.com/coreldraw/odm/2003">
 <defs>
  <style type="text/css">
   <![CDATA[
    .str0 {stroke:#FFFF99;stroke-width:0.13;stroke-miterlimit:2.61313}
    .fil0 {fill:#339966}
    .fil1 {fill:#33CC99}
    .fil2 {fill:#FFFF99}
   ]]>
  </style>
 </defs>
 <g id="Layer_x0020_1">
  <metadata id="CorelCorpID_0Corel-Layer"/>
  <g id="_1642266342368">
   <rect class="fil0" x="15.2" y="9.97" width="9.52" height="23.81"/>
   <path class="fil1" d="M19.86 5.81c0,-8.53 8.03,-7.06 2.61,0.48 5.42,-7.54 13.46,-6.06 2.6,0.48 10.86,-6.54 15.13,-2.8 1.39,1.21 13.74,-4.01 18.02,-0.27 1.39,1.21 16.63,-1.48 15.14,2.78 -0.48,1.38 15.62,1.4 14.14,5.65 -0.49,1.39 14.63,4.26 8.08,7.03 -2.12,0.9 10.2,6.13 3.65,8.91 -2.13,0.9 5.78,8.01 -2.77,8.01 -2.77,0 0,8.01 -8.55,8.01 -2.78,0 -5.77,8.01 -12.32,5.23 -2.12,-0.9 -10.2,6.13 -16.75,3.36 -2.13,-0.9 -14.62,4.26 -16.11,0.01 -0.48,-1.39 -15.63,1.4 -17.11,-2.86 -0.48,-1.38 -16.63,-1.48 -12.36,-5.22 1.39,-1.21 -13.75,-4.01 -9.47,-7.75 1.38,-1.21 -10.85,-6.54 -2.82,-8.02 2.61,-0.48 -5.43,-7.54 2.61,-9.01 2.61,-0.48z"/>
   <ellipse class="fil2 str0" cx="19.97" cy="9.97" rx="4.76" ry="2.38"/>
  </g>
 </g>
</svg>
