<?xml version="1.0" encoding="UTF-8"?>
<!DOCTYPE svg PUBLIC "-//W3C//DTD SVG 1.1//EN" "http://www.w3.org/Graphics/SVG/1.1/DTD/svg11.dtd">
<!-- Creator: CorelDRAW -->
<svg xmlns="http://www.w3.org/2000/svg" xml:space="preserve" width="267px" height="227px" version="1.1" style="shape-rendering:geometricPrecision; text-rendering:geometricPrecision; image-rendering:optimizeQuality; fill-rule:evenodd; clip-rule:evenodd"
viewBox="0 0 168.27 143.1"
 xmlns:xlink="http://www.w3.org/1999/xlink"
 xmlns:xodm="http://www.corel.com/coreldraw/odm/2003">
 <defs>
  <style type="text/css">
   <![CDATA[
    .str0 {stroke:#FFFF99;stroke-width:0.57;stroke-miterlimit:2.61313}
    .fil0 {fill:#339966}
    .fil1 {fill:#FF99CC}
    .fil2 {fill:#FFFF99}
   ]]>
  </style>
 </defs>
 <g id="Layer_x0020_1">
  <metadata id="CorelCorpID_0Corel-Layer"/>
  <g id="_1677601467584">
   <rect class="fil0" x="64.42" y="42.23" width="40.35" height="100.87"/>
   <path class="fil1" d="M84.13 24.6c0,-36.14 34.05,-29.88 11.05,2.03 23,-31.91 57.04,-25.65 11.05,2.04 45.99,-27.69 64.1,-11.84 5.87,5.14 58.23,-16.98 76.35,-1.13 5.88,5.15 70.47,-6.28 64.18,11.73 -2.04,5.84 66.22,5.89 59.93,23.92 -2.04,5.85 61.97,18.07 34.21,29.83 -9.01,3.81 43.22,26.02 15.47,37.78 -9,3.82 24.47,33.96 -11.76,33.96 -11.76,0 0,33.96 -36.23,33.96 -11.75,0 -24.48,33.96 -52.23,22.2 -9.01,-3.82 -43.22,26.02 -70.97,14.26 -9,-3.81 -61.97,18.07 -68.26,0.04 -2.05,-5.85 -66.21,5.89 -72.5,-12.12 -2.04,-5.84 -70.46,-6.28 -52.35,-22.13 5.88,-5.15 -58.23,-16.98 -40.11,-32.83 5.88,-5.14 -45.99,-27.69 -11.95,-33.95 11.05,-2.04 -23,-31.91 11.04,-38.17 11.04,-2.03z"/>
   <ellipse class="fil2 str0" cx="84.59" cy="42.23" rx="20.17" ry="10.09"/>
  </g>
 </g>
</svg>
