<?xml version="1.0" encoding="UTF-8"?>
<!DOCTYPE svg PUBLIC "-//W3C//DTD SVG 1.1//EN" "http://www.w3.org/Graphics/SVG/1.1/DTD/svg11.dtd">
<!-- Creator: CorelDRAW -->
<svg xmlns="http://www.w3.org/2000/svg" xml:space="preserve" width="267px" height="227px" version="1.1" style="shape-rendering:geometricPrecision; text-rendering:geometricPrecision; image-rendering:optimizeQuality; fill-rule:evenodd; clip-rule:evenodd"
viewBox="0 0 32.38 27.53"
 xmlns:xlink="http://www.w3.org/1999/xlink"
 xmlns:xodm="http://www.corel.com/coreldraw/odm/2003">
 <defs>
  <style type="text/css">
   <![CDATA[
    .str0 {stroke:#FFFF99;stroke-width:0.11;stroke-miterlimit:2.61313}
    .fil0 {fill:#339966}
    .fil2 {fill:#FFFF99}
    .fil1 {fill:white}
   ]]>
  </style>
 </defs>
 <g id="Layer_x0020_1">
  <metadata id="CorelCorpID_0Corel-Layer"/>
  <g id="_1641828313120">
   <rect class="fil0" x="12.39" y="8.12" width="7.76" height="19.41"/>
   <path class="fil1" d="M16.19 4.73c0,-6.95 6.55,-5.75 2.12,0.39 4.43,-6.14 10.98,-4.93 2.13,0.4 8.85,-5.33 12.33,-2.28 1.13,0.99 11.2,-3.27 14.69,-0.22 1.13,0.99 13.56,-1.21 12.35,2.25 -0.39,1.12 12.74,1.13 11.53,4.6 -0.39,1.13 11.92,3.47 6.58,5.73 -1.74,0.73 8.32,5 2.98,7.27 -1.73,0.73 4.71,6.54 -2.26,6.54 -2.26,0 0,6.54 -6.97,6.54 -2.26,0 -4.71,6.54 -10.05,4.27 -1.74,-0.73 -8.31,5 -13.65,2.74 -1.73,-0.73 -11.92,3.47 -13.13,0 -0.39,-1.13 -12.74,1.13 -13.95,-2.33 -0.4,-1.12 -13.55,-1.21 -10.07,-4.26 1.14,-0.99 -11.21,-3.27 -7.72,-6.32 1.13,-0.99 -8.85,-5.33 -2.3,-6.54 2.12,-0.4 -4.42,-6.14 2.13,-7.34 2.13,-0.39z"/>
   <ellipse class="fil2 str0" cx="16.28" cy="8.12" rx="3.88" ry="1.94"/>
  </g>
 </g>
</svg>
