<?xml version="1.0" encoding="UTF-8"?>
<!DOCTYPE svg PUBLIC "-//W3C//DTD SVG 1.1//EN" "http://www.w3.org/Graphics/SVG/1.1/DTD/svg11.dtd">
<!-- Creator: CorelDRAW -->
<svg xmlns="http://www.w3.org/2000/svg" xml:space="preserve" width="402px" height="368px" version="1.1" shape-rendering="geometricPrecision" text-rendering="geometricPrecision" image-rendering="optimizeQuality" fill-rule="evenodd" clip-rule="evenodd"
viewBox="0 0 400.32 367.16"
 xmlns:xlink="http://www.w3.org/1999/xlink"
 xmlns:xodm="http://www.corel.com/coreldraw/odm/2003">
 <g id="Layer_x0020_1">
  <metadata id="CorelCorpID_0Corel-Layer"/>
  <g id="_2725068293456">
   <g>
    <path fill="#663333" stroke="#373435" stroke-width="0.9" stroke-miterlimit="2.61313" d="M72.56 366.71c0,0 9.6,-5.57 22.72,-17.54 7.88,5.34 16.52,4.05 24.68,-8.07 5.66,-8.4 11.09,-22 15.88,-42.19 7.59,-12.92 14.61,-27.84 20.16,-44.87 -5.72,-13.67 -2.04,-24.74 8.39,-34.08 2.36,-13.77 3.74,-28.62 3.83,-44.58l41.78 0 0.56 0 0.61 0 0.42 0 0.71 0 0.36 0 0.73 0 0.37 0 0.7 0 0.43 0 0.6 0 0.56 0 41.78 0c0.17,30.91 5.19,57.64 12.83,80.49 2.85,33.3 11.89,44.97 22.83,48.44 7.54,12.02 15.51,22.18 23.09,30.57 15.8,8.33 26.12,15.22 23.13,21.96 8.32,6.7 13.79,9.87 13.79,9.87l-137.45 0.01 -1.57 0 -0.67 0 -1.57 0 -0.67 0 -1.57 0 -137.44 -0.01z"/>
    <path fill="#663300" d="M200.03 235.24c0,0 15.94,-1.96 13,9.81 -2.94,11.77 -17.66,11.77 -17.66,11.77 0,0 -16.36,-3.2 -10.21,-12.39 6.15,-9.19 14.87,-9.19 14.87,-9.19z"/>
    <g>
     <path fill="#613205" d="M199.85 236.52c0,0 14.06,-1.74 11.46,8.64 -2.59,10.37 -15.55,10.37 -15.55,10.37 0,0 -14.43,-2.82 -9,-10.92 5.42,-8.09 13.09,-8.09 13.09,-8.09z"/>
     <path fill="#5B320B" d="M199.68 237.79c0,0 12.16,-1.5 9.92,7.48 -2.24,8.97 -13.46,8.97 -13.46,8.97 0,0 -12.48,-2.44 -7.79,-9.45 4.69,-7 11.33,-7 11.33,-7z"/>
     <path fill="#563110" d="M199.51 239.06c0,0 10.27,-1.26 8.38,6.32 -1.9,7.57 -11.37,7.57 -11.37,7.57 0,0 -10.54,-2.06 -6.58,-7.97 3.96,-5.92 9.57,-5.92 9.57,-5.92z"/>
     <path fill="#503015" d="M199.34 240.33c0,0 8.38,-1.03 6.83,5.15 -1.54,6.19 -9.27,6.19 -9.27,6.19 0,0 -8.59,-1.68 -5.36,-6.51 3.23,-4.83 7.8,-4.83 7.8,-4.83z"/>
     <path fill="#4B301B" d="M199.17 241.61c0,0 6.48,-0.8 5.29,3.98 -1.2,4.79 -7.18,4.79 -7.18,4.79 0,0 -6.65,-1.3 -4.15,-5.04 2.5,-3.73 6.04,-3.73 6.04,-3.73z"/>
    </g>
    <path fill="#452F20" d="M199 242.88c0,0 4.59,-0.56 3.74,2.82 -0.84,3.39 -5.08,3.39 -5.08,3.39 0,0 -4.71,-0.92 -2.94,-3.56 1.77,-2.65 4.28,-2.65 4.28,-2.65z"/>
   </g>
   <g>
    <path fill="#006633" fill-rule="nonzero" d="M202.39 23.9c8.94,-9.26 19.82,-15.77 31.06,-19.35 9.13,-2.91 18.51,-3.91 27.33,-2.9 8.92,1.01 17.19,4.05 23.99,9.18 7.51,5.67 13.22,13.91 15.94,24.84 33.81,-0.78 58.14,1.32 70.02,7.2 13.24,6.56 12.47,16.81 -5.6,31.63 30.52,23.7 39.18,39.82 33.61,51.02 -5.03,10.11 -21.13,15.83 -43.03,19.24 22.39,8.99 33.13,17.7 34.59,26.18 1.59,9.29 -7.71,17.85 -24.93,25.88 15.16,15.97 19.4,26.77 13.24,32.66 -6.3,6.01 -22.57,6.35 -48.31,1.29 -12.58,13.28 -24.52,22.69 -35.43,26.09 -11.97,3.73 -22.34,1.09 -30.55,-10.09 -8.19,3.76 -16.86,6.13 -25.1,6.95 -7.91,0.8 -15.45,0.18 -21.87,-1.97 -6.53,-2.19 -11.82,-5.91 -15.1,-11.31 -2.15,-3.54 -3.42,-7.82 -3.56,-12.84 -13.92,10.27 -27.92,17.34 -42.02,19.14 -16.71,2.14 -33,-2.93 -48.7,-18.47 -34.39,8.4 -58.92,9.75 -71.14,2.33 -12.4,-7.54 -11.54,-23.5 5.24,-49.55 -28.67,-15.39 -43.62,-29.33 -41.94,-41.49 1.64,-11.86 18.62,-21.53 53.51,-28.65 -27.26,-14.2 -35.13,-26.22 -29.87,-36.79 5.36,-10.78 24.67,-19.44 50.9,-27.04 7.11,-28.61 22.51,-43.47 45.11,-46.51 21.71,-2.92 49.54,5.46 82.61,23.33zm34.53 -14.42c-10.9,3.48 -21.52,10.17 -30.01,19.88l-2.42 2.77 -3.67 -2.04c-32.72,-18.15 -59.56,-26.83 -79.45,-24.16 -19.39,2.61 -32.71,16.48 -39.05,43.48l-0.35 1.5 -2.08 0.59c-25.26,7.18 -43.79,15.04 -48.42,24.35 -4.47,8.99 4.41,19.97 33.56,33.95l7.02 3.36 -8.32 1.5c-36.57,6.57 -54.1,15.13 -55.52,25.39 -1.45,10.48 13.3,23.29 41.33,38.02l2.49 1.31 -1.29 1.94c-16.35,24.72 -18.36,39.22 -8.47,45.24 10.03,6.09 32.87,4.17 65.9,-4.15l3.07 -0.77 1.77 1.85c14.13,14.76 28.18,19.68 42.17,17.89 14.57,-1.86 29.69,-10.76 45.08,-23.38l7.19 2.06c-1.41,7.76 -0.4,13.82 2.34,18.33 2.47,4.07 6.39,6.86 11.19,8.47 4.89,1.63 10.78,2.09 17.06,1.46 8.27,-0.83 17.16,-3.53 25.41,-7.89l4.21 -2.22 2.05 3.32c6.24,10.11 13.59,12.91 21.76,10.37 9.79,-3.05 21.18,-12.43 33.59,-25.78l1.65 -1.78 2.99 0.61c23.74,4.91 38,5.45 42.26,1.38 4.34,-4.15 -0.68,-13.64 -15.56,-28.77l-2.26 -2.3 3.43 -1.5c16.7,-7.29 25.94,-14.68 24.65,-22.2 -1.34,-7.79 -13.6,-16.26 -39.97,-25.61l1.21 -5.11c24.54,-2.84 42.93,-7.7 47.58,-17.05 4.78,-9.61 -4.14,-24.46 -34.31,-47.44l-2.34 -1.78 2.32 -1.81c16.3,-12.72 18.45,-20.91 9.21,-25.49 -10.71,-5.3 -34.63,-7.03 -68.53,-6.06l-3.69 0.11 -0.49 -2.47c-2.21,-10.99 -7.47,-19.07 -14.51,-24.39 -5.52,-4.16 -12.16,-6.62 -19.25,-7.43 -7.19,-0.81 -14.92,0.03 -22.53,2.45z"/>
    <path fill="#669966" d="M202.93 42.93c25.32,-28.95 72.5,-28.18 79.97,8.95 59.33,-1.7 84.47,6.42 53.31,30.73 53.32,40.62 30.9,53.68 -13.33,58.8 47.2,16.74 44.06,31.34 13.33,44.76 27.13,27.57 16.98,35.88 -26.66,26.86 -21.82,23.5 -40.73,33.19 -53.31,12.8 -25.58,13.5 -58.61,9.6 -53.31,-19.48 -27.2,22.31 -54.06,31.51 -79.96,4.47 -58.83,14.8 -82.59,6.11 -53.31,-38.14 -49.69,-26.12 -52.19,-46.36 13.32,-58.13 -52.67,-25.26 -31.45,-41 13.33,-53.71 11.32,-48.23 49.19,-49.77 106.62,-17.91z"/>
    <g>
     <path fill="#096B38" d="M202.35 25.17c8.82,-9.13 19.55,-15.55 30.64,-19.08 9.03,-2.88 18.31,-3.87 27.04,-2.87 8.82,1 17,4 23.73,9.08 7.41,5.59 13.04,13.73 15.74,24.51 33.36,-0.78 57.37,1.3 69.11,7.12 13.1,6.49 12.36,16.62 -5.47,31.27 30.12,23.39 38.65,39.32 33.15,50.38 -4.96,9.98 -20.81,15.62 -42.35,19 22.02,8.87 32.58,17.45 34.02,25.82 1.57,9.19 -7.6,17.65 -24.59,25.57 14.96,15.76 19.13,26.44 13.04,32.26 -6.24,5.96 -22.32,6.3 -47.73,1.31 -12.42,13.1 -24.2,22.39 -34.98,25.74 -11.84,3.69 -22.1,1.09 -30.23,-9.93 -8.07,3.7 -16.62,6.03 -24.74,6.84 -7.82,0.79 -15.28,0.18 -21.64,-1.95 -6.46,-2.17 -11.7,-5.86 -14.94,-11.2 -2.11,-3.47 -3.36,-7.65 -3.51,-12.56 -13.72,10.09 -27.5,17.04 -41.4,18.82 -16.51,2.11 -32.62,-2.89 -48.13,-18.23 -33.95,8.29 -58.18,9.62 -70.26,2.28 -12.26,-7.46 -11.42,-23.22 5.13,-48.94 -28.29,-15.2 -43.05,-28.96 -41.39,-40.99 1.62,-11.71 18.36,-21.27 52.75,-28.3 -26.85,-14 -34.59,-25.88 -29.4,-36.32 5.29,-10.65 24.36,-19.21 50.25,-26.72 7.03,-28.24 22.26,-42.92 44.6,-45.93 21.44,-2.88 48.92,5.39 81.56,23.02zm34.13 -14.11c-10.74,3.42 -21.21,10.02 -29.59,19.6 -0.81,0.93 -1.62,1.86 -2.43,2.79 -1.23,-0.69 -2.47,-1.37 -3.7,-2.06 -32.29,-17.91 -58.76,-26.47 -78.37,-23.84 -19.11,2.57 -32.24,16.25 -38.49,42.88 -0.12,0.51 -0.24,1.01 -0.36,1.52 -0.69,0.2 -1.39,0.39 -2.09,0.59 -24.92,7.08 -43.2,14.83 -47.76,24.01 -4.41,8.85 4.36,19.67 33.11,33.45 2.35,1.13 4.71,2.26 7.07,3.39 -2.8,0.5 -5.59,1 -8.39,1.5 -36.06,6.48 -53.35,14.92 -54.75,25.03 -1.43,10.32 13.13,22.96 40.77,37.49 0.84,0.44 1.68,0.88 2.51,1.32 -0.43,0.65 -0.86,1.3 -1.29,1.95 -16.13,24.38 -18.13,38.68 -8.39,44.6 9.88,6 32.4,4.1 64.98,-4.1 1.03,-0.26 2.06,-0.52 3.09,-0.78 0.59,0.62 1.19,1.24 1.78,1.86 13.94,14.55 27.78,19.4 41.56,17.64 14.36,-1.84 29.27,-10.61 44.46,-23.06 2.41,0.69 4.83,1.38 7.24,2.07 -1.4,7.65 -0.4,13.62 2.3,18.07 2.44,4.01 6.29,6.75 11.01,8.33 4.81,1.61 10.61,2.06 16.8,1.44 8.15,-0.82 16.91,-3.48 25.04,-7.78 1.42,-0.74 2.83,-1.49 4.25,-2.24 0.68,1.12 1.37,2.24 2.06,3.35 6.14,9.95 13.36,12.71 21.37,10.21 9.65,-3 20.89,-12.25 33.13,-25.43 0.56,-0.6 1.11,-1.2 1.67,-1.8 1,0.21 2,0.42 3.01,0.62 23.4,4.84 37.45,5.38 41.63,1.39 4.27,-4.08 -0.69,-13.44 -15.37,-28.35 -0.76,-0.78 -1.51,-1.54 -2.27,-2.31 1.15,-0.51 2.3,-1.01 3.46,-1.51 16.46,-7.19 25.56,-14.47 24.29,-21.88 -1.32,-7.67 -13.41,-16.02 -39.41,-25.24 0.41,-1.72 0.81,-3.43 1.22,-5.15 24.19,-2.8 42.32,-7.58 46.91,-16.79 4.7,-9.47 -4.09,-24.11 -33.86,-46.79 -0.79,-0.59 -1.57,-1.19 -2.35,-1.79 0.77,-0.61 1.55,-1.21 2.33,-1.82 16.06,-12.52 18.18,-20.59 9.11,-25.08 -10.56,-5.23 -34.16,-6.93 -67.61,-5.97 -1.24,0.03 -2.48,0.07 -3.71,0.1 -0.17,-0.82 -0.34,-1.65 -0.5,-2.48 -2.18,-10.85 -7.37,-18.81 -14.31,-24.05 -5.44,-4.11 -11.98,-6.52 -18.96,-7.32 -7.08,-0.8 -14.69,0.02 -22.2,2.42z"/>
     <path fill="#136F3C" d="M202.3 26.42c8.71,-8.99 19.3,-15.31 30.24,-18.8 8.92,-2.84 18.1,-3.82 26.73,-2.83 8.72,0.99 16.82,3.96 23.47,8.98 7.32,5.52 12.88,13.54 15.54,24.17 32.92,-0.76 56.61,1.3 68.2,7.04 12.97,6.42 12.26,16.44 -5.34,30.91 29.72,23.09 38.14,38.82 32.7,49.75 -4.9,9.84 -20.48,15.42 -41.67,18.76 21.64,8.74 32.03,17.21 33.45,25.46 1.56,9.08 -7.49,17.44 -24.24,25.26 14.75,15.56 18.86,26.1 12.82,31.87 -6.17,5.89 -22.05,6.24 -47.14,1.32 -12.25,12.92 -23.89,22.08 -34.53,25.4 -11.72,3.64 -21.86,1.09 -29.9,-9.78 -7.96,3.64 -16.38,5.93 -24.38,6.73 -7.74,0.78 -15.12,0.17 -21.41,-1.93 -6.39,-2.14 -11.58,-5.8 -14.79,-11.08 -2.07,-3.4 -3.3,-7.49 -3.46,-12.29 -13.51,9.92 -27.09,16.75 -40.78,18.5 -16.32,2.08 -32.24,-2.85 -47.56,-17.98 -33.51,8.17 -57.43,9.47 -69.37,2.21 -12.13,-7.37 -11.32,-22.94 5.02,-48.32 -27.92,-15.01 -42.48,-28.6 -40.84,-40.49 1.6,-11.56 18.09,-21 51.98,-27.95 -26.45,-13.81 -34.06,-25.53 -28.93,-35.84 5.23,-10.53 24.05,-18.99 49.61,-26.4 6.95,-27.89 21.99,-42.38 44.07,-45.35 21.18,-2.85 48.3,5.3 80.51,22.68zm33.75 -13.79c-10.59,3.37 -20.91,9.88 -29.17,19.33 -0.82,0.93 -1.64,1.87 -2.45,2.8 -1.25,-0.69 -2.49,-1.38 -3.73,-2.07 -31.85,-17.67 -57.96,-26.12 -77.29,-23.52 -18.83,2.54 -31.77,16.02 -37.93,42.29 -0.12,0.5 -0.24,1.01 -0.36,1.52 -0.7,0.2 -1.41,0.4 -2.11,0.6 -24.57,6.97 -42.61,14.62 -47.1,23.66 -4.33,8.72 4.31,19.37 32.65,32.96 2.37,1.14 4.75,2.28 7.12,3.41 -2.82,0.51 -5.63,1.01 -8.44,1.52 -35.56,6.39 -52.62,14.7 -53.99,24.65 -1.41,10.17 12.95,22.63 40.22,36.96 0.84,0.44 1.68,0.89 2.52,1.33 -0.43,0.65 -0.86,1.31 -1.3,1.97 -15.9,24.04 -17.88,38.13 -8.29,43.96 9.72,5.91 31.93,4.03 64.06,-4.06 1.03,-0.26 2.07,-0.52 3.1,-0.78 0.6,0.62 1.2,1.25 1.8,1.87 13.73,14.35 27.37,19.12 40.93,17.39 14.16,-1.81 28.86,-10.46 43.85,-22.75 2.43,0.7 4.86,1.39 7.29,2.09 -1.38,7.54 -0.4,13.43 2.26,17.81 2.4,3.94 6.19,6.64 10.83,8.2 4.73,1.58 10.44,2.02 16.53,1.41 8.04,-0.81 16.67,-3.43 24.69,-7.66 1.42,-0.75 2.85,-1.51 4.27,-2.26 0.69,1.12 1.39,2.25 2.08,3.37 6.04,9.79 13.13,12.5 20.99,10.05 9.51,-2.96 20.59,-12.08 32.66,-25.08 0.57,-0.61 1.12,-1.21 1.68,-1.81 1.01,0.21 2.02,0.42 3.03,0.62 23.06,4.77 36.91,5.31 41.01,1.39 4.19,-4 -0.7,-13.22 -15.17,-27.93 -0.76,-0.77 -1.53,-1.55 -2.29,-2.32 1.16,-0.51 2.32,-1.01 3.48,-1.52 16.22,-7.08 25.2,-14.25 23.95,-21.54 -1.3,-7.55 -13.22,-15.78 -38.86,-24.88 0.4,-1.72 0.81,-3.45 1.22,-5.18 23.85,-2.76 41.73,-7.47 46.24,-16.54 4.64,-9.33 -4.04,-23.76 -33.4,-46.13 -0.79,-0.6 -1.58,-1.2 -2.37,-1.8 0.78,-0.62 1.57,-1.23 2.35,-1.84 15.81,-12.33 17.91,-20.27 9,-24.68 -10.4,-5.15 -33.68,-6.83 -66.68,-5.88 -1.25,0.03 -2.5,0.07 -3.74,0.11 -0.17,-0.84 -0.34,-1.67 -0.5,-2.51 -2.16,-10.69 -7.27,-18.54 -14.11,-23.71 -5.36,-4.04 -11.79,-6.42 -18.67,-7.2 -6.97,-0.8 -14.47,0.02 -21.86,2.38z"/>
     <path fill="#1C7441" d="M202.25 27.69c8.59,-8.86 19.04,-15.09 29.83,-18.53 8.82,-2.81 17.89,-3.78 26.43,-2.8 8.63,0.98 16.63,3.91 23.21,8.88 7.22,5.45 12.71,13.36 15.35,23.83 32.47,-0.74 55.84,1.29 67.29,6.96 12.84,6.36 12.15,16.27 -5.21,30.55 29.31,22.79 37.61,38.32 32.24,49.13 -4.83,9.7 -20.15,15.21 -41,18.52 21.28,8.6 31.49,16.95 32.89,25.09 1.54,8.98 -7.38,17.23 -23.89,24.96 14.54,15.35 18.58,25.76 12.61,31.46 -6.11,5.83 -21.8,6.19 -46.56,1.34 -12.09,12.75 -23.57,21.78 -34.08,25.05 -11.59,3.61 -21.63,1.1 -29.58,-9.61 -7.84,3.56 -16.13,5.82 -24.02,6.61 -7.65,0.77 -14.95,0.17 -21.17,-1.91 -6.33,-2.12 -11.46,-5.74 -14.64,-10.97 -2.02,-3.33 -3.23,-7.33 -3.42,-12.02 -13.3,9.75 -26.67,16.46 -40.15,18.18 -16.13,2.07 -31.86,-2.8 -46.98,-17.73 -33.08,8.06 -56.69,9.34 -68.5,2.16 -11.99,-7.29 -11.2,-22.66 4.91,-47.72 -27.54,-14.81 -41.91,-28.23 -40.29,-39.97 1.58,-11.43 17.83,-20.75 51.21,-27.61 -26.03,-13.62 -33.52,-25.19 -28.46,-35.37 5.18,-10.4 23.75,-18.75 48.97,-26.07 6.87,-27.54 21.74,-41.85 43.56,-44.78 20.91,-2.81 47.67,5.22 79.45,22.37zm33.37 -13.5c-10.44,3.33 -20.62,9.75 -28.76,19.06 -0.82,0.94 -1.65,1.88 -2.47,2.82 -1.25,-0.69 -2.5,-1.38 -3.75,-2.08 -31.41,-17.42 -57.16,-25.76 -76.22,-23.2 -18.54,2.5 -31.29,15.79 -37.37,41.69 -0.12,0.51 -0.24,1.02 -0.36,1.53 -0.7,0.2 -1.41,0.4 -2.12,0.6 -24.23,6.88 -42.01,14.43 -46.44,23.33 -4.27,8.57 4.26,19.07 32.19,32.46 2.39,1.15 4.78,2.29 7.17,3.44 -2.83,0.51 -5.66,1.02 -8.5,1.52 -35.06,6.3 -51.87,14.49 -53.22,24.29 -1.38,10.01 12.77,22.3 39.66,36.43 0.85,0.44 1.7,0.89 2.54,1.33 -0.43,0.66 -0.87,1.32 -1.31,1.98 -15.68,23.71 -17.64,37.6 -8.2,43.33 9.57,5.82 31.46,3.96 63.14,-4.02 1.04,-0.26 2.08,-0.52 3.13,-0.78 0.6,0.63 1.2,1.26 1.8,1.88 13.54,14.14 26.97,18.85 40.32,17.14 13.95,-1.78 28.45,-10.32 43.22,-22.43 2.45,0.7 4.9,1.4 7.34,2.1 -1.35,7.43 -0.39,13.23 2.23,17.55 2.36,3.88 6.09,6.54 10.65,8.06 4.66,1.56 10.27,1.99 16.27,1.39 7.91,-0.79 16.43,-3.38 24.33,-7.55 1.43,-0.76 2.86,-1.51 4.29,-2.27 0.7,1.13 1.4,2.26 2.1,3.4 5.93,9.61 12.89,12.28 20.6,9.88 9.37,-2.92 20.3,-11.92 32.21,-24.74 0.56,-0.6 1.13,-1.21 1.69,-1.82 1.01,0.21 2.03,0.42 3.05,0.64 22.72,4.69 36.35,5.23 40.38,1.38 4.12,-3.93 -0.71,-13.01 -14.97,-27.5 -0.77,-0.78 -1.54,-1.56 -2.31,-2.34 1.17,-0.51 2.34,-1.02 3.51,-1.53 15.98,-6.98 24.82,-14.04 23.59,-21.2 -1.27,-7.44 -13.03,-15.55 -38.31,-24.51 0.41,-1.74 0.82,-3.48 1.24,-5.22 23.51,-2.72 41.13,-7.36 45.57,-16.29 4.57,-9.18 -4,-23.42 -32.95,-45.47 -0.8,-0.61 -1.59,-1.21 -2.39,-1.82 0.79,-0.61 1.58,-1.23 2.37,-1.85 15.56,-12.13 17.64,-19.94 8.9,-24.27 -10.25,-5.08 -33.21,-6.73 -65.77,-5.8 -1.25,0.04 -2.51,0.07 -3.76,0.11 -0.17,-0.84 -0.34,-1.68 -0.51,-2.52 -2.12,-10.54 -7.15,-18.28 -13.9,-23.37 -5.27,-3.98 -11.61,-6.33 -18.37,-7.1 -6.86,-0.78 -14.25,0.03 -21.53,2.34z"/>
     <path fill="#257946" d="M202.21 28.95c8.47,-8.72 18.77,-14.86 29.41,-18.26 8.72,-2.77 17.69,-3.73 26.13,-2.77 8.54,0.98 16.45,3.88 22.96,8.79 7.12,5.37 12.54,13.17 15.15,23.5 32.02,-0.73 55.07,1.28 66.38,6.88 12.7,6.29 12.05,16.08 -5.08,30.19 28.91,22.48 37.08,37.82 31.78,48.49 -4.76,9.56 -19.82,15.01 -40.32,18.28 20.9,8.48 30.94,16.71 32.32,24.74 1.52,8.86 -7.27,17.02 -23.55,24.64 14.34,15.15 18.31,25.42 12.4,31.07 -6.04,5.77 -21.53,6.13 -45.97,1.35 -11.93,12.57 -23.25,21.47 -33.63,24.7 -11.47,3.57 -21.39,1.1 -29.25,-9.45 -7.73,3.5 -15.9,5.72 -23.67,6.5 -7.56,0.76 -14.78,0.17 -20.94,-1.9 -6.26,-2.09 -11.34,-5.67 -14.48,-10.84 -1.98,-3.26 -3.17,-7.17 -3.37,-11.75 -13.09,9.57 -26.25,16.16 -39.53,17.86 -15.94,2.04 -31.47,-2.77 -46.41,-17.48 -32.64,7.94 -55.95,9.19 -67.61,2.1 -11.86,-7.2 -11.09,-22.38 4.8,-47.11 -27.17,-14.62 -41.34,-27.87 -39.74,-39.47 1.56,-11.28 17.57,-20.48 50.44,-27.26 -25.62,-13.43 -32.99,-24.84 -27.99,-34.9 5.11,-10.28 23.44,-18.52 48.33,-25.75 6.79,-27.17 21.48,-41.3 43.04,-44.2 20.64,-2.77 47.05,5.14 78.4,22.05zm32.97 -13.19c-10.28,3.28 -20.31,9.61 -28.34,18.79 -0.83,0.94 -1.65,1.89 -2.48,2.84 -1.26,-0.7 -2.52,-1.4 -3.78,-2.1 -30.98,-17.18 -56.36,-25.4 -75.14,-22.88 -18.26,2.46 -30.82,15.57 -36.81,41.09 -0.12,0.51 -0.24,1.03 -0.36,1.54 -0.71,0.21 -1.43,0.41 -2.14,0.61 -23.89,6.78 -41.42,14.22 -45.78,22.98 -4.2,8.44 4.21,18.78 31.74,31.98 2.41,1.15 4.81,2.3 7.21,3.46 -2.85,0.51 -5.7,1.02 -8.55,1.53 -34.56,6.21 -51.13,14.28 -52.46,23.92 -1.36,9.86 12.6,21.96 39.11,35.89 0.85,0.45 1.7,0.9 2.56,1.35 -0.44,0.66 -0.88,1.33 -1.32,1.99 -15.46,23.37 -17.4,37.05 -8.12,42.69 9.42,5.73 30.99,3.89 62.22,-3.97 1.05,-0.27 2.1,-0.53 3.15,-0.79 0.61,0.63 1.21,1.26 1.82,1.9 13.33,13.92 26.56,18.56 39.7,16.88 13.75,-1.76 28.03,-10.17 42.6,-22.12 2.46,0.71 4.93,1.42 7.39,2.12 -1.34,7.32 -0.39,13.04 2.2,17.29 2.31,3.81 5.98,6.43 10.46,7.93 4.58,1.53 10.11,1.96 16.01,1.36 7.79,-0.78 16.18,-3.33 23.96,-7.44 1.44,-0.76 2.89,-1.52 4.33,-2.28 0.7,1.14 1.4,2.28 2.11,3.42 5.83,9.45 12.66,12.07 20.22,9.72 9.23,-2.87 20,-11.74 31.74,-24.39 0.57,-0.61 1.14,-1.22 1.7,-1.83 1.03,0.21 2.05,0.42 3.08,0.64 22.38,4.62 35.8,5.16 39.75,1.39 4.04,-3.86 -0.73,-12.8 -14.78,-27.08 -0.77,-0.78 -1.54,-1.57 -2.32,-2.35 1.18,-0.52 2.36,-1.03 3.53,-1.54 15.75,-6.88 24.46,-13.83 23.25,-20.88 -1.26,-7.32 -12.84,-15.3 -37.76,-24.14 0.41,-1.75 0.82,-3.5 1.24,-5.25 23.17,-2.68 40.54,-7.25 44.91,-16.04 4.5,-9.04 -3.95,-23.07 -32.5,-44.82 -0.8,-0.61 -1.61,-1.21 -2.41,-1.82 0.8,-0.62 1.59,-1.24 2.39,-1.86 15.31,-11.95 17.38,-19.63 8.79,-23.88 -10.1,-5 -32.74,-6.63 -64.84,-5.71 -1.26,0.04 -2.53,0.07 -3.79,0.11 -0.17,-0.85 -0.34,-1.69 -0.51,-2.53 -2.09,-10.4 -7.05,-18.03 -13.69,-23.04 -5.2,-3.92 -11.43,-6.22 -18.09,-6.98 -6.75,-0.77 -14.03,0.02 -21.2,2.3z"/>
     <path fill="#2E7D4A" d="M202.16 30.21c8.36,-8.59 18.52,-14.64 29.01,-17.98 8.61,-2.75 17.48,-3.69 25.82,-2.74 8.44,0.97 16.27,3.83 22.7,8.69 7.03,5.3 12.37,12.99 14.96,23.16 31.57,-0.71 54.3,1.28 65.47,6.8 12.56,6.22 11.94,15.9 -4.96,29.83 28.51,22.18 36.57,37.32 31.33,47.86 -4.69,9.43 -19.49,14.81 -39.64,18.04 20.52,8.35 30.39,16.46 31.75,24.38 1.5,8.76 -7.15,16.81 -23.2,24.33 14.13,14.94 18.03,25.09 12.19,30.67 -5.99,5.71 -21.27,6.08 -45.39,1.37 -11.76,12.39 -22.94,21.17 -33.19,24.36 -11.33,3.53 -21.14,1.1 -28.92,-9.3 -7.61,3.44 -15.65,5.62 -23.3,6.39 -7.48,0.75 -14.62,0.16 -20.71,-1.88 -6.2,-2.07 -11.22,-5.61 -14.33,-10.73 -1.94,-3.19 -3.11,-7 -3.33,-11.47 -12.88,9.4 -25.83,15.87 -38.91,17.54 -15.74,2.01 -31.08,-2.73 -45.83,-17.24 -32.2,7.83 -55.2,9.06 -66.73,2.05 -11.72,-7.12 -10.98,-22.11 4.69,-46.51 -26.79,-14.42 -40.77,-27.5 -39.19,-38.96 1.54,-11.13 17.31,-20.22 49.67,-26.91 -25.2,-13.24 -32.44,-24.5 -27.51,-34.42 5.05,-10.16 23.13,-18.3 47.68,-25.43 6.71,-26.82 21.23,-40.76 42.52,-43.63 20.38,-2.74 46.44,5.07 77.35,21.73zm32.59 -12.88c-10.13,3.24 -20.01,9.47 -27.93,18.51 -0.83,0.96 -1.66,1.91 -2.5,2.86 -1.26,-0.7 -2.53,-1.4 -3.8,-2.11 -30.54,-16.94 -55.56,-25.05 -74.06,-22.56 -17.98,2.42 -30.35,15.34 -36.25,40.49 -0.12,0.52 -0.24,1.04 -0.37,1.56 -0.71,0.2 -1.43,0.4 -2.15,0.61 -23.55,6.68 -40.83,14 -45.12,22.64 -4.13,8.3 4.16,18.47 31.28,31.48 2.43,1.16 4.85,2.32 7.27,3.48 -2.87,0.52 -5.74,1.03 -8.62,1.55 -34.05,6.11 -50.38,14.06 -51.69,23.54 -1.34,9.71 12.42,21.64 38.55,35.37 0.86,0.45 1.72,0.9 2.58,1.35 -0.44,0.67 -0.89,1.34 -1.33,2.01 -15.23,23.03 -17.16,36.51 -8.03,42.05 9.27,5.64 30.52,3.82 61.31,-3.93 1.05,-0.27 2.11,-0.53 3.16,-0.8 0.61,0.64 1.23,1.28 1.84,1.92 13.13,13.71 26.14,18.28 39.08,16.63 13.54,-1.73 27.62,-10.02 41.98,-21.8 2.48,0.71 4.96,1.42 7.43,2.13 -1.31,7.21 -0.38,12.85 2.17,17.03 2.27,3.75 5.88,6.32 10.28,7.79 4.5,1.51 9.94,1.93 15.74,1.34 7.68,-0.77 15.94,-3.28 23.61,-7.33 1.45,-0.76 2.9,-1.53 4.35,-2.3 0.71,1.15 1.42,2.3 2.13,3.45 5.73,9.28 12.43,11.87 19.83,9.56 9.1,-2.83 19.71,-11.58 31.29,-24.04 0.57,-0.61 1.14,-1.23 1.71,-1.84 1.03,0.21 2.06,0.42 3.09,0.64 22.05,4.55 35.26,5.09 39.13,1.39 3.97,-3.79 -0.74,-12.58 -14.58,-26.65 -0.78,-0.79 -1.56,-1.58 -2.34,-2.37 1.19,-0.52 2.37,-1.03 3.56,-1.55 15.5,-6.77 24.08,-13.61 22.89,-20.54 -1.23,-7.2 -12.65,-15.07 -37.21,-23.78 0.42,-1.76 0.84,-3.52 1.25,-5.28 22.84,-2.64 39.95,-7.14 44.24,-15.79 4.43,-8.9 -3.9,-22.72 -32.04,-44.16 -0.81,-0.61 -1.62,-1.23 -2.42,-1.84 0.8,-0.62 1.6,-1.25 2.4,-1.87 15.07,-11.75 17.11,-19.3 8.69,-23.47 -9.95,-4.93 -32.27,-6.54 -63.92,-5.63 -1.27,0.04 -2.55,0.08 -3.82,0.11 -0.17,-0.85 -0.34,-1.7 -0.51,-2.55 -2.06,-10.24 -6.95,-17.76 -13.49,-22.7 -5.11,-3.85 -11.25,-6.12 -17.8,-6.87 -6.64,-0.75 -13.81,0.03 -20.86,2.27z"/>
     <path fill="#38824F" d="M202.11 31.47c8.25,-8.45 18.26,-14.41 28.6,-17.7 8.52,-2.72 17.28,-3.65 25.53,-2.71 8.34,0.95 16.08,3.79 22.43,8.59 6.93,5.22 12.21,12.8 14.76,22.83 31.13,-0.7 53.55,1.26 64.56,6.72 12.43,6.15 11.84,15.71 -4.82,29.47 28.1,21.88 36.05,36.81 30.87,47.23 -4.62,9.29 -19.16,14.6 -38.96,17.8 20.15,8.22 29.84,16.21 31.18,24.01 1.48,8.65 -7.04,16.6 -22.85,24.03 13.92,14.73 17.75,24.74 11.97,30.26 -5.92,5.66 -21.01,6.03 -44.8,1.39 -11.6,12.21 -22.62,20.86 -32.74,24.01 -11.2,3.49 -20.91,1.1 -28.59,-9.14 -7.5,3.38 -15.41,5.52 -22.95,6.27 -7.39,0.75 -14.45,0.17 -20.48,-1.85 -6.12,-2.05 -11.1,-5.55 -14.17,-10.61 -1.9,-3.12 -3.05,-6.85 -3.28,-11.2 -12.67,9.22 -25.42,15.57 -38.29,17.21 -15.55,1.99 -30.7,-2.68 -45.26,-16.99 -31.76,7.72 -54.45,8.92 -65.84,2 -11.59,-7.04 -10.87,-21.83 4.58,-45.9 -26.43,-14.23 -40.2,-27.14 -38.64,-38.45 1.52,-10.99 17.04,-19.96 48.9,-26.57 -24.8,-13.04 -31.91,-24.15 -27.04,-33.95 4.99,-10.03 22.82,-18.07 47.04,-25.1 6.63,-26.46 20.96,-40.22 42,-43.05 20.11,-2.71 45.81,4.98 76.29,21.4zm32.21 -12.57c-9.99,3.19 -19.72,9.32 -27.51,18.24 -0.84,0.96 -1.68,1.92 -2.52,2.88 -1.27,-0.71 -2.55,-1.42 -3.82,-2.12 -30.12,-16.71 -54.77,-24.7 -72.99,-22.25 -17.7,2.38 -29.88,15.11 -35.7,39.89 -0.12,0.53 -0.24,1.05 -0.36,1.57 -0.72,0.2 -1.45,0.41 -2.17,0.61 -23.21,6.59 -40.23,13.81 -44.46,22.3 -4.06,8.17 4.11,18.18 30.83,30.99 2.44,1.17 4.87,2.34 7.31,3.51 -2.89,0.52 -5.78,1.03 -8.67,1.55 -33.55,6.03 -49.64,13.85 -50.93,23.18 -1.32,9.55 12.24,21.3 38,34.84 0.86,0.45 1.72,0.9 2.59,1.36 -0.45,0.67 -0.89,1.34 -1.34,2.02 -15.01,22.68 -16.92,35.96 -7.94,41.42 9.12,5.54 30.05,3.74 60.39,-3.9 1.06,-0.26 2.12,-0.53 3.19,-0.8 0.61,0.64 1.23,1.29 1.84,1.93 12.93,13.5 25.74,18.01 38.46,16.38 13.34,-1.7 27.21,-9.88 41.37,-21.49 2.49,0.72 4.98,1.44 7.48,2.15 -1.29,7.11 -0.37,12.65 2.13,16.77 2.24,3.69 5.78,6.21 10.1,7.66 4.43,1.48 9.77,1.89 15.48,1.32 7.56,-0.76 15.69,-3.24 23.24,-7.22 1.47,-0.78 2.93,-1.55 4.39,-2.32 0.71,1.16 1.42,2.31 2.14,3.47 5.62,9.12 12.19,11.66 19.45,9.4 8.95,-2.79 19.41,-11.4 30.82,-23.69 0.58,-0.62 1.15,-1.24 1.72,-1.86 1.04,0.22 2.08,0.43 3.12,0.65 21.7,4.48 34.7,5.02 38.5,1.39 3.89,-3.71 -0.75,-12.37 -14.38,-26.22 -0.79,-0.8 -1.57,-1.59 -2.35,-2.39 1.19,-0.52 2.38,-1.04 3.57,-1.56 15.27,-6.66 23.72,-13.39 22.55,-20.2 -1.22,-7.09 -12.46,-14.83 -36.66,-23.41 0.42,-1.78 0.84,-3.55 1.26,-5.32 22.49,-2.6 39.34,-7.03 43.57,-15.54 4.36,-8.76 -3.86,-22.37 -31.6,-43.5 -0.81,-0.62 -1.62,-1.24 -2.43,-1.86 0.81,-0.62 1.61,-1.25 2.42,-1.88 14.82,-11.56 16.84,-18.98 8.58,-23.07 -9.8,-4.85 -31.79,-6.43 -63,-5.54 -1.28,0.04 -2.56,0.08 -3.84,0.11 -0.17,-0.85 -0.34,-1.71 -0.51,-2.56 -2.03,-10.09 -6.85,-17.5 -13.29,-22.36 -5.03,-3.79 -11.06,-6.03 -17.51,-6.76 -6.53,-0.75 -13.58,0.02 -20.52,2.23z"/>
     <path fill="#418653" d="M202.07 32.73c8.13,-8.32 17.99,-14.18 28.18,-17.43 8.42,-2.68 17.08,-3.6 25.23,-2.67 8.24,0.94 15.89,3.74 22.18,8.49 6.83,5.15 12.03,12.62 14.56,22.49 30.68,-0.69 52.78,1.26 63.65,6.64 12.29,6.09 11.73,15.53 -4.7,29.11 27.71,21.58 35.53,36.31 30.41,46.6 -4.55,9.15 -18.82,14.4 -38.28,17.56 19.78,8.09 29.3,15.96 30.62,23.65 1.47,8.55 -6.93,16.39 -22.51,23.72 13.72,14.53 17.48,24.41 11.77,29.87 -5.86,5.59 -20.75,5.97 -44.22,1.4 -11.44,12.03 -22.31,20.56 -32.29,23.67 -11.08,3.45 -20.67,1.1 -28.27,-8.99 -7.38,3.32 -15.17,5.42 -22.58,6.16 -7.31,0.74 -14.29,0.17 -20.25,-1.83 -6.06,-2.03 -10.98,-5.49 -14.02,-10.5 -1.85,-3.05 -2.99,-6.68 -3.23,-10.92 -12.47,9.05 -25.01,15.27 -37.67,16.89 -15.36,1.96 -30.32,-2.64 -44.69,-16.75 -31.32,7.61 -53.71,8.79 -64.96,1.95 -11.44,-6.96 -10.76,-21.55 4.47,-45.29 -26.05,-14.04 -39.63,-26.78 -38.08,-37.95 1.49,-10.85 16.78,-19.69 48.12,-26.22 -24.38,-12.85 -31.37,-23.81 -26.56,-33.48 4.92,-9.9 22.51,-17.83 46.4,-24.78 6.54,-26.1 20.7,-39.67 41.48,-42.47 19.84,-2.67 45.19,4.9 75.24,21.08zm31.81 -12.26c-9.83,3.14 -19.41,9.18 -27.09,17.97 -0.85,0.96 -1.69,1.93 -2.53,2.89 -1.29,-0.71 -2.57,-1.42 -3.85,-2.13 -29.68,-16.47 -53.98,-24.34 -71.91,-21.93 -17.42,2.34 -29.41,14.88 -35.14,39.3 -0.12,0.52 -0.24,1.05 -0.37,1.57 -0.72,0.21 -1.45,0.41 -2.18,0.62 -22.87,6.49 -39.64,13.6 -43.8,21.96 -3.99,8.02 4.06,17.88 30.37,30.49 2.46,1.18 4.91,2.36 7.36,3.53 -2.91,0.52 -5.81,1.05 -8.72,1.57 -33.05,5.94 -48.9,13.63 -50.17,22.8 -1.3,9.41 12.06,20.97 37.44,34.31 0.87,0.46 1.74,0.92 2.61,1.37 -0.45,0.68 -0.89,1.36 -1.34,2.03 -14.79,22.35 -16.68,35.43 -7.86,40.79 8.97,5.45 29.58,3.67 59.47,-3.85 1.07,-0.27 2.14,-0.54 3.21,-0.81 0.62,0.65 1.24,1.29 1.86,1.94 12.73,13.29 25.33,17.73 37.84,16.13 13.13,-1.68 26.79,-9.73 40.74,-21.17 2.52,0.72 5.02,1.44 7.54,2.16 -1.28,7 -0.37,12.46 2.09,16.51 2.2,3.62 5.67,6.1 9.92,7.52 4.35,1.46 9.6,1.86 15.22,1.3 7.44,-0.75 15.44,-3.19 22.88,-7.11 1.47,-0.78 2.94,-1.55 4.41,-2.33 0.72,1.16 1.44,2.33 2.16,3.49 5.52,8.96 11.96,11.45 19.06,9.24 8.82,-2.74 19.12,-11.23 30.37,-23.34 0.57,-0.63 1.15,-1.25 1.73,-1.87 1.04,0.21 2.09,0.43 3.13,0.65 21.37,4.41 34.16,4.95 37.88,1.4 3.82,-3.65 -0.76,-12.16 -14.19,-25.8 -0.79,-0.8 -1.57,-1.6 -2.36,-2.4 1.2,-0.53 2.4,-1.05 3.6,-1.57 15.03,-6.57 23.34,-13.19 22.2,-19.88 -1.2,-6.97 -12.28,-14.59 -36.12,-23.04 0.43,-1.79 0.85,-3.57 1.27,-5.35 22.16,-2.57 38.75,-6.92 42.91,-15.28 4.29,-8.63 -3.81,-22.03 -31.15,-42.86 -0.81,-0.62 -1.63,-1.24 -2.45,-1.86 0.81,-0.63 1.63,-1.26 2.44,-1.9 14.57,-11.37 16.58,-18.65 8.48,-22.67 -9.65,-4.77 -31.32,-6.33 -62.08,-5.45 -1.29,0.04 -2.58,0.08 -3.86,0.12 -0.18,-0.87 -0.35,-1.73 -0.52,-2.59 -2,-9.94 -6.74,-17.23 -13.09,-22.02 -4.94,-3.73 -10.88,-5.92 -17.21,-6.65 -6.43,-0.73 -13.36,0.03 -20.2,2.2z"/>
     <path fill="#4A8B58" d="M202.02 33.99c8.02,-8.18 17.74,-13.95 27.77,-17.15 8.32,-2.65 16.88,-3.56 24.93,-2.64 8.15,0.93 15.71,3.7 21.92,8.39 6.73,5.08 11.87,12.43 14.37,22.15 30.23,-0.67 52.01,1.25 62.74,6.57 12.16,6.02 11.62,15.34 -4.57,28.74 27.3,21.28 35.01,35.82 29.95,45.97 -4.48,9.02 -18.49,14.2 -37.6,17.32 19.4,7.97 28.75,15.72 30.05,23.3 1.45,8.43 -6.82,16.17 -22.16,23.4 13.51,14.33 17.2,24.08 11.55,29.47 -5.79,5.54 -20.49,5.92 -43.63,1.42 -11.27,11.85 -21.99,20.25 -31.84,23.32 -10.95,3.41 -20.43,1.11 -27.94,-8.83 -7.27,3.26 -14.93,5.32 -22.23,6.05 -7.22,0.73 -14.12,0.16 -20.01,-1.81 -6,-2.01 -10.86,-5.43 -13.87,-10.38 -1.81,-2.98 -2.93,-6.52 -3.19,-10.65 -12.25,8.87 -24.58,14.97 -37.04,16.57 -15.17,1.94 -29.94,-2.6 -44.12,-16.5 -30.88,7.49 -52.96,8.64 -64.07,1.89 -11.31,-6.87 -10.65,-21.28 4.36,-44.69 -25.68,-13.84 -39.06,-26.41 -37.54,-37.44 1.48,-10.7 16.52,-19.43 47.36,-25.86 -23.97,-12.67 -30.84,-23.47 -26.09,-33.01 4.86,-9.78 22.2,-17.61 45.75,-24.46 6.47,-25.75 20.45,-39.14 40.97,-41.9 19.57,-2.63 44.56,4.82 74.18,20.76zm31.43 -11.95c-9.68,3.09 -19.12,9.04 -26.68,17.69 -0.85,0.97 -1.7,1.95 -2.55,2.92 -1.29,-0.72 -2.58,-1.44 -3.87,-2.15 -29.24,-16.22 -53.17,-23.99 -70.84,-21.61 -17.13,2.3 -28.93,14.65 -34.57,38.7 -0.12,0.53 -0.25,1.06 -0.37,1.58 -0.73,0.21 -1.46,0.42 -2.2,0.63 -22.52,6.39 -39.05,13.39 -43.14,21.61 -3.92,7.89 4.01,17.58 29.92,30.01 2.47,1.18 4.94,2.36 7.4,3.55 -2.92,0.52 -5.85,1.05 -8.78,1.57 -32.55,5.85 -48.15,13.42 -49.4,22.44 -1.28,9.25 11.89,20.64 36.88,33.78 0.88,0.46 1.76,0.92 2.63,1.38 -0.45,0.68 -0.9,1.36 -1.35,2.04 -14.56,22.01 -16.44,34.88 -7.77,40.15 8.82,5.35 29.12,3.6 58.55,-3.81 1.08,-0.27 2.16,-0.54 3.23,-0.81 0.63,0.65 1.25,1.3 1.87,1.95 12.53,13.09 24.93,17.45 37.23,15.88 12.92,-1.65 26.38,-9.58 40.12,-20.85 2.53,0.72 5.05,1.45 7.58,2.17 -1.25,6.89 -0.36,12.27 2.06,16.25 2.16,3.56 5.57,5.99 9.74,7.39 4.27,1.43 9.44,1.82 14.95,1.27 7.32,-0.74 15.21,-3.13 22.53,-7 1.48,-0.78 2.96,-1.56 4.44,-2.34 0.72,1.17 1.44,2.34 2.16,3.51 5.43,8.79 11.74,11.25 18.69,9.08 8.67,-2.7 18.82,-11.06 29.9,-22.99 0.58,-0.63 1.16,-1.26 1.75,-1.88 1.05,0.21 2.1,0.43 3.15,0.65 21.03,4.34 33.61,4.88 37.25,1.4 3.74,-3.57 -0.78,-11.94 -13.99,-25.37 -0.79,-0.81 -1.59,-1.61 -2.38,-2.42 1.21,-0.53 2.41,-1.05 3.62,-1.58 14.79,-6.46 22.98,-12.97 21.85,-19.54 -1.18,-6.85 -12.08,-14.35 -35.56,-22.68 0.43,-1.79 0.85,-3.59 1.27,-5.38 21.82,-2.53 38.16,-6.82 42.25,-15.03 4.22,-8.49 -3.77,-21.69 -30.7,-42.2 -0.82,-0.62 -1.64,-1.25 -2.46,-1.88 0.81,-0.63 1.63,-1.27 2.45,-1.9 14.33,-11.18 16.31,-18.34 8.37,-22.27 -9.49,-4.7 -30.85,-6.23 -61.15,-5.36 -1.3,0.03 -2.6,0.07 -3.89,0.11 -0.18,-0.87 -0.35,-1.74 -0.53,-2.6 -1.96,-9.79 -6.63,-16.97 -12.87,-21.68 -4.87,-3.67 -10.7,-5.83 -16.93,-6.54 -6.32,-0.72 -13.14,0.02 -19.86,2.16z"/>
     <path fill="#53905D" d="M201.97 35.25c7.91,-8.05 17.48,-13.72 27.37,-16.87 8.21,-2.62 16.66,-3.52 24.62,-2.61 8.06,0.92 15.53,3.65 21.66,8.29 6.64,5 11.7,12.25 14.18,21.82 29.78,-0.66 51.24,1.24 61.83,6.48 12.02,5.95 11.51,15.16 -4.45,28.39 26.9,20.97 34.49,35.31 29.5,45.33 -4.41,8.88 -18.17,13.99 -36.92,17.08 19.03,7.84 28.2,15.47 29.48,22.94 1.43,8.33 -6.71,15.97 -21.81,23.1 13.3,14.11 16.92,23.73 11.34,29.07 -5.73,5.47 -20.23,5.86 -43.05,1.43 -11.11,11.67 -21.68,19.95 -31.39,22.97 -10.83,3.37 -20.2,1.11 -27.62,-8.66 -7.15,3.19 -14.68,5.21 -21.86,5.93 -7.14,0.72 -13.96,0.16 -19.79,-1.79 -5.93,-1.99 -10.74,-5.38 -13.71,-10.27 -1.77,-2.91 -2.87,-6.36 -3.14,-10.37 -12.04,8.7 -24.17,14.68 -36.43,16.24 -14.97,1.92 -29.54,-2.55 -43.53,-16.25 -30.45,7.38 -52.23,8.51 -63.2,1.84 -11.17,-6.79 -10.54,-21 4.25,-44.08 -25.3,-13.65 -38.49,-26.05 -36.98,-36.94 1.46,-10.55 16.25,-19.17 46.58,-25.51 -23.55,-12.48 -30.29,-23.13 -25.62,-32.54 4.8,-9.65 21.9,-17.38 45.12,-24.14 6.38,-25.38 20.19,-38.59 40.44,-41.31 19.31,-2.6 43.95,4.74 73.13,20.43zm31.05 -11.63c-9.53,3.03 -18.82,8.89 -26.27,17.41 -0.85,0.98 -1.71,1.95 -2.56,2.93 -1.3,-0.72 -2.6,-1.44 -3.9,-2.16 -28.81,-15.98 -52.38,-23.63 -69.76,-21.29 -16.85,2.27 -28.46,14.42 -34.01,38.1 -0.13,0.53 -0.25,1.06 -0.38,1.6 -0.73,0.21 -1.47,0.41 -2.21,0.62 -22.18,6.3 -38.45,13.19 -42.48,21.27 -3.85,7.76 3.96,17.29 29.46,29.52 2.49,1.19 4.97,2.38 7.46,3.57 -2.95,0.53 -5.89,1.06 -8.84,1.59 -32.05,5.76 -47.41,13.2 -48.64,22.07 -1.25,9.09 11.71,20.3 36.33,33.24 0.88,0.47 1.76,0.93 2.64,1.39 -0.45,0.69 -0.9,1.37 -1.36,2.06 -14.34,21.67 -16.19,34.34 -7.67,39.51 8.65,5.26 28.64,3.53 57.63,-3.76 1.08,-0.28 2.16,-0.55 3.25,-0.82 0.62,0.65 1.25,1.31 1.88,1.96 12.33,12.88 24.52,17.18 36.61,15.63 12.71,-1.62 25.96,-9.44 39.5,-20.54 2.54,0.73 5.08,1.46 7.63,2.19 -1.24,6.78 -0.36,12.07 2.02,15.99 2.12,3.49 5.47,5.88 9.56,7.25 4.2,1.41 9.27,1.8 14.69,1.25 7.2,-0.72 14.96,-3.08 22.16,-6.89 1.49,-0.78 2.98,-1.57 4.47,-2.35 0.73,1.17 1.46,2.35 2.18,3.53 5.32,8.63 11.5,11.04 18.3,8.92 8.54,-2.65 18.53,-10.89 29.44,-22.65 0.59,-0.63 1.18,-1.26 1.76,-1.89 1.06,0.22 2.12,0.44 3.18,0.66 20.69,4.27 33.05,4.81 36.62,1.4 3.66,-3.49 -0.79,-11.73 -13.79,-24.94 -0.8,-0.81 -1.6,-1.62 -2.4,-2.44 1.21,-0.53 2.43,-1.06 3.65,-1.59 14.55,-6.35 22.61,-12.75 21.5,-19.2 -1.16,-6.74 -11.9,-14.12 -35.01,-22.31 0.42,-1.81 0.85,-3.62 1.28,-5.43 21.47,-2.48 37.56,-6.7 41.57,-14.77 4.15,-8.35 -3.71,-21.34 -30.24,-41.54 -0.83,-0.63 -1.65,-1.26 -2.48,-1.89 0.82,-0.64 1.64,-1.28 2.46,-1.92 14.09,-10.99 16.05,-18.02 8.28,-21.87 -9.34,-4.62 -30.38,-6.13 -60.24,-5.27 -1.3,0.04 -2.61,0.07 -3.91,0.11 -0.18,-0.87 -0.35,-1.74 -0.53,-2.62 -1.93,-9.63 -6.53,-16.7 -12.67,-21.34 -4.78,-3.61 -10.52,-5.73 -16.64,-6.43 -6.21,-0.7 -12.92,0.03 -19.52,2.14z"/>
     <path fill="#5D9461" d="M201.93 36.51c7.79,-7.91 17.21,-13.49 26.95,-16.6 8.11,-2.58 16.46,-3.47 24.33,-2.57 7.95,0.91 15.34,3.61 21.4,8.19 6.54,4.93 11.53,12.06 13.98,21.48 29.33,-0.64 50.47,1.24 60.91,6.41 11.89,5.88 11.41,14.97 -4.31,28.02 26.5,20.67 33.97,34.81 29.04,44.71 -4.34,8.74 -17.84,13.78 -36.25,16.84 18.66,7.71 27.66,15.22 28.92,22.57 1.41,8.22 -6.59,15.76 -21.47,22.79 13.1,13.91 16.65,23.4 11.13,28.67 -5.66,5.41 -19.97,5.81 -42.46,1.45 -10.95,11.49 -21.36,19.64 -30.94,22.63 -10.7,3.33 -19.96,1.11 -27.3,-8.51 -7.03,3.13 -14.44,5.11 -21.5,5.82 -7.05,0.71 -13.79,0.15 -19.55,-1.78 -5.87,-1.96 -10.62,-5.31 -13.56,-10.14 -1.72,-2.84 -2.81,-6.2 -3.09,-10.1 -11.84,8.52 -23.76,14.38 -35.81,15.92 -14.78,1.89 -29.16,-2.51 -42.96,-16.01 -30.01,7.27 -51.48,8.37 -62.31,1.79 -11.04,-6.71 -10.43,-20.72 4.14,-43.48 -24.93,-13.45 -37.92,-25.68 -36.44,-36.42 1.44,-10.41 15.99,-18.91 45.82,-25.17 -23.15,-12.29 -29.76,-22.79 -25.15,-32.07 4.74,-9.52 21.59,-17.14 44.47,-23.81 6.31,-25.03 19.93,-38.05 39.93,-40.74 19.04,-2.56 43.32,4.66 72.08,20.11zm30.65 -11.32c-9.37,2.98 -18.51,8.75 -25.84,17.13 -0.86,0.99 -1.72,1.97 -2.58,2.96 -1.31,-0.73 -2.62,-1.45 -3.93,-2.18 -28.37,-15.74 -51.58,-23.27 -68.68,-20.97 -16.57,2.23 -27.98,14.19 -33.46,37.5 -0.12,0.54 -0.25,1.07 -0.37,1.61 -0.74,0.21 -1.48,0.42 -2.23,0.63 -21.84,6.2 -37.86,12.98 -41.81,20.93 -3.79,7.61 3.9,16.99 29,29.02 2.5,1.2 5,2.4 7.5,3.6 -2.97,0.53 -5.93,1.06 -8.89,1.59 -31.55,5.67 -46.67,12.99 -47.88,21.7 -1.23,8.94 11.53,19.98 35.78,32.72 0.88,0.46 1.77,0.93 2.66,1.4 -0.46,0.69 -0.92,1.38 -1.37,2.07 -14.12,21.33 -15.96,33.79 -7.59,38.87 8.5,5.17 28.17,3.46 56.71,-3.72 1.09,-0.27 2.18,-0.55 3.27,-0.82 0.63,0.66 1.26,1.31 1.89,1.97 12.13,12.67 24.12,16.9 35.99,15.38 12.51,-1.6 25.56,-9.29 38.89,-20.22 2.56,0.73 5.11,1.47 7.67,2.2 -1.21,6.67 -0.35,11.88 1.99,15.73 2.08,3.43 5.37,5.77 9.38,7.12 4.12,1.38 9.1,1.76 14.42,1.22 7.09,-0.71 14.72,-3.03 21.81,-6.77 1.5,-0.8 2.99,-1.59 4.49,-2.38 0.74,1.19 1.47,2.38 2.2,3.56 5.22,8.46 11.27,10.83 17.92,8.76 8.39,-2.61 18.23,-10.72 28.98,-22.3 0.59,-0.63 1.18,-1.27 1.77,-1.9 1.06,0.22 2.13,0.44 3.19,0.66 20.35,4.2 32.51,4.74 36,1.41 3.59,-3.43 -0.8,-11.52 -13.59,-24.52 -0.81,-0.82 -1.61,-1.64 -2.42,-2.45 1.22,-0.54 2.45,-1.07 3.67,-1.6 14.31,-6.25 22.24,-12.54 21.15,-18.88 -1.13,-6.62 -11.71,-13.87 -34.46,-21.94 0.43,-1.82 0.86,-3.64 1.29,-5.46 21.14,-2.44 36.97,-6.59 40.91,-14.52 4.08,-8.2 -3.67,-20.99 -29.79,-40.89 -0.83,-0.63 -1.66,-1.26 -2.5,-1.9 0.83,-0.64 1.66,-1.28 2.48,-1.93 13.84,-10.79 15.79,-17.69 8.17,-21.46 -9.19,-4.55 -29.9,-6.03 -59.31,-5.19 -1.31,0.04 -2.63,0.08 -3.94,0.11 -0.18,-0.88 -0.35,-1.75 -0.53,-2.63 -1.91,-9.49 -6.43,-16.44 -12.47,-21.01 -4.7,-3.54 -10.33,-5.62 -16.34,-6.31 -6.11,-0.69 -12.7,0.02 -19.2,2.1z"/>
    </g>
    <path fill="#669966" fill-rule="nonzero" d="M201.88 37.77c7.68,-7.78 16.96,-13.27 26.54,-16.32 8.01,-2.55 16.26,-3.43 24.03,-2.54 7.86,0.89 15.15,3.57 21.14,8.08 6.44,4.87 11.36,11.89 13.78,21.16 28.89,-0.63 49.72,1.22 60.01,6.32 11.75,5.82 11.3,14.8 -4.19,27.66 26.1,20.37 33.45,34.32 28.59,44.08 -4.28,8.6 -17.51,13.58 -35.57,16.6 18.29,7.58 27.11,14.97 28.35,22.21 1.4,8.12 -6.48,15.55 -21.12,22.48 12.88,13.71 16.37,23.06 10.92,28.28 -5.6,5.35 -19.71,5.75 -41.88,1.46 -10.78,11.31 -21.05,19.34 -30.49,22.28 -10.57,3.29 -19.72,1.12 -26.97,-8.35 -6.92,3.06 -14.2,5.01 -21.14,5.71 -6.97,0.69 -13.63,0.15 -19.33,-1.76 -5.79,-1.94 -10.5,-5.25 -13.4,-10.03 -1.68,-2.77 -2.75,-6.04 -3.05,-9.82 -11.62,8.35 -23.33,14.08 -35.18,15.6 -14.59,1.86 -28.78,-2.47 -42.39,-15.76 -29.57,7.15 -50.73,8.23 -61.43,1.73 -10.9,-6.63 -10.32,-20.45 4.03,-42.87 -24.56,-13.26 -37.35,-25.32 -35.88,-35.92 1.42,-10.27 15.73,-18.64 45.05,-24.82 -22.74,-12.09 -29.23,-22.44 -24.68,-31.6 4.68,-9.4 21.27,-16.91 43.83,-23.48 6.22,-24.67 19.67,-37.51 39.41,-40.17 18.77,-2.52 42.7,4.58 71.02,19.79zm30.27 -11.01c-9.22,2.93 -18.22,8.61 -25.43,16.86l-2.6 2.97 -3.95 -2.19c-27.93,-15.5 -50.78,-22.92 -67.6,-20.65 -16.29,2.19 -27.51,13.96 -32.9,36.9l-0.38 1.62 -2.24 0.64c-21.5,6.1 -37.26,12.77 -41.15,20.58 -3.72,7.48 3.85,16.69 28.54,28.53l7.55 3.62 -8.95 1.61c-31.04,5.58 -45.92,12.77 -47.11,21.33 -1.21,8.79 11.36,19.64 35.22,32.18l2.68 1.41 -1.38 2.09c-13.89,20.99 -15.71,33.25 -7.5,38.23 8.35,5.08 27.7,3.39 55.79,-3.68l3.29 -0.82 1.91 1.98c11.93,12.46 23.71,16.62 35.37,15.13 12.3,-1.57 25.14,-9.15 38.26,-19.91l7.73 2.22c-1.2,6.57 -0.35,11.68 1.95,15.47 2.05,3.37 5.27,5.66 9.2,6.98 4.05,1.36 8.93,1.73 14.16,1.2 6.97,-0.7 14.47,-2.98 21.45,-6.66l4.52 -2.39 2.21 3.58c5.12,8.3 11.04,10.63 17.54,8.6 8.25,-2.57 17.93,-10.55 28.51,-21.95l1.78 -1.92 3.22 0.67c20.01,4.13 31.96,4.67 35.37,1.41 3.51,-3.35 -0.81,-11.3 -13.4,-24.09l-2.43 -2.47 3.7 -1.61c14.07,-6.15 21.87,-12.32 20.8,-18.54 -1.12,-6.5 -11.52,-13.64 -33.91,-21.58l1.3 -5.49c20.79,-2.4 36.36,-6.48 40.24,-14.27 4.01,-8.06 -3.63,-20.64 -29.34,-40.23l-2.51 -1.91 2.49 -1.95c13.6,-10.6 15.52,-17.37 8.07,-21.06 -9.04,-4.47 -29.43,-5.93 -58.39,-5.1l-3.97 0.12 -0.53 -2.66c-1.88,-9.33 -6.32,-16.17 -12.27,-20.66 -4.61,-3.48 -10.15,-5.53 -16.05,-6.2 -6,-0.69 -12.48,0.02 -18.86,2.06z"/>
   </g>
  </g>
 </g>
</svg>
