<?xml version="1.0" encoding="UTF-8"?>
<!DOCTYPE svg PUBLIC "-//W3C//DTD SVG 1.1//EN" "http://www.w3.org/Graphics/SVG/1.1/DTD/svg11.dtd">
<!-- Creator: CorelDRAW -->
<svg xmlns="http://www.w3.org/2000/svg" xml:space="preserve" width="1933px" height="269px" version="1.1" shape-rendering="geometricPrecision" text-rendering="geometricPrecision" image-rendering="optimizeQuality" fill-rule="evenodd" clip-rule="evenodd"
viewBox="0 0 888.38 123.43"
 xmlns:xlink="http://www.w3.org/1999/xlink"
 xmlns:xodm="http://www.corel.com/coreldraw/odm/2003">
 <defs>
   <clipPath id="id0">
    <path d="M32.22 2.87l823.94 0c16.14,0 29.35,13.21 29.35,29.35l0 88.34 -882.64 0 0 -88.34c0,-16.14 13.21,-29.35 29.35,-29.35z"/>
   </clipPath>
 </defs>
 <g id="Layer_x0020_1">
  <metadata id="CorelCorpID_0Corel-Layer"/>
  <path fill="#2AD1D1" d="M32.22 2.87l823.94 0c16.14,0 29.35,13.21 29.35,29.35l0 88.34 -882.64 0 0 -88.34c0,-16.14 13.21,-29.35 29.35,-29.35z"/>
  <g clip-path="url(#id0)">
   <g id="_1677506540512">
    <polygon id="_1" fill="white" fill-opacity="0.250980" points="-37.01,74.1 937.61,74.1 937.61,160.82 -37.01,160.82 "/>
   </g>
  </g>
  <path fill="none" stroke="#6699FF" stroke-width="5.75" stroke-miterlimit="2.61313" d="M32.22 2.87l823.94 0c16.14,0 29.35,13.21 29.35,29.35l0 88.34 -882.64 0 0 -88.34c0,-16.14 13.21,-29.35 29.35,-29.35z"/>
 </g>
</svg>
