<?xml version="1.0" encoding="UTF-8"?>
<!DOCTYPE svg PUBLIC "-//W3C//DTD SVG 1.1//EN" "http://www.w3.org/Graphics/SVG/1.1/DTD/svg11.dtd">
<!-- Creator: CorelDRAW -->
<svg xmlns="http://www.w3.org/2000/svg" xml:space="preserve" width="824px" height="513px" version="1.1" shape-rendering="geometricPrecision" text-rendering="geometricPrecision" image-rendering="optimizeQuality" fill-rule="evenodd" clip-rule="evenodd"
viewBox="0 0 79.09 49.24"
 xmlns:xlink="http://www.w3.org/1999/xlink"
 xmlns:xodm="http://www.corel.com/coreldraw/odm/2003">
 <defs>
   <clipPath id="id0">
    <path d="M79.04 0.04l-79 0 0 49.15 79 0 0 -49.15z"/>
   </clipPath>
 </defs>
 <g id="Layer_x0020_1">
  <metadata id="CorelCorpID_0Corel-Layer"/>
  <polygon fill="#003333" points="79.04,0.04 0.04,0.04 0.04,49.19 79.04,49.19 "/>
  <g clip-path="url(#id0)">
   <g id="_2689808004544">
    <g>
     <path id="_1" fill="white" fill-opacity="0.129412" d="M100.38 14.11l1.11 1.1 9.81 9.81 -9.81 9.81 -1.11 1.1 -8.7 8.71 -1.1 1.1 -8.71 8.71 -1.1 1.1 -8.7 8.7 -1.11 1.11 -8.7 8.7 -1.11 1.11 -8.7 8.7 -1.11 1.11 -9.81 9.8 -9.8 -9.8 -1.11 -1.11 -8.7 -8.7 -1.11 -1.11 -8.7 -8.7 -1.11 -1.11 -8.7 -8.7 -1.11 -1.1 -8.7 -8.71 -1.1 -1.1 -8.71 -8.71 -1.1 -1.1 -9.81 -9.81 9.81 -9.81 1.1 -1.1 8.71 -8.71 1.1 -1.1 8.7 -8.7 1.11 -1.11 8.7 -8.7 1.11 -1.11 8.7 -8.7 1.11 -1.11 8.7 -8.7 1.11 -1.11 9.8 -9.8 9.81 9.8 1.11 1.11 8.7 8.7 1.11 1.11 8.7 8.7 1.11 1.11 8.7 8.7 1.1 1.11 8.71 8.7 1.1 1.1 8.7 8.71zm-116.59 1.1l8.7 8.7 0.88 -0.88 7.82 -7.82 -8.7 -8.7 -8.7 8.7zm8.7 10.92l-8.7 8.7 8.7 8.7 8.7 -8.7 -7.82 -7.82 -0.88 -0.88zm-9.81 -9.81l8.71 8.7 -8.71 8.7 -8.7 -8.7 8.7 -8.7zm0 2.65l1.85 1.85 -1.85 1.84 -1.84 -1.84 1.84 -1.85zm4.21 4.21l1.84 1.84 -1.84 1.85 -1.85 -1.85 1.85 -1.84zm-8.41 0l1.85 1.84 -1.85 1.85 -1.84 -1.85 1.84 -1.84zm4.2 4.2l1.85 1.84 -1.85 1.85 -1.84 -1.85 1.84 -1.84zm9.81 1.4l1.85 1.85 -1.85 1.84 -1.84 -1.84 1.84 -1.85zm4.2 4.2l1.85 1.85 -1.85 1.84 -1.84 -1.84 1.84 -1.85zm-8.4 0l1.84 1.85 -1.84 1.84 -1.84 -1.84 1.84 -1.85zm4.2 4.21l1.85 1.84 -1.85 1.85 -1.84 -1.85 1.84 -1.84zm9.81 16.15l5.43 -5.43 3.27 -3.27 -8.7 -8.71 -8.7 8.71 8.7 8.7zm0 -14.75l1.85 1.84 -1.85 1.85 -1.84 -1.85 1.84 -1.84zm4.2 4.2l1.85 1.85 -1.85 1.84 -1.84 -1.84 1.84 -1.85zm-8.4 0l1.84 1.85 -1.84 1.84 -1.85 -1.84 1.85 -1.85zm4.2 4.2l1.85 1.85 -1.85 1.84 -1.84 -1.84 1.84 -1.85zm18.51 7.46l-8.7 -8.71 -8.7 8.71 8.7 8.7 8.7 -8.7zm-1.42 3.63l-6.17 6.17 8.7 8.71 8.7 -8.71 -8.7 -8.7 -2.53 2.53zm-7.28 -9.68l1.84 1.84 -1.84 1.85 -1.85 -1.85 1.85 -1.84zm4.2 4.2l1.85 1.85 -1.85 1.84 -1.84 -1.84 1.84 -1.85zm-8.4 0l1.84 1.85 -1.84 1.84 -1.85 -1.84 1.85 -1.85zm4.2 4.2l1.84 1.85 -1.84 1.84 -1.85 -1.84 1.85 -1.85zm19.62 8.56l-8.71 8.7 8.71 8.7 8.7 -8.7 -8.7 -8.7zm-9.81 -7.15l1.84 1.84 -1.84 1.85 -1.85 -1.85 1.85 -1.84zm4.2 4.2l1.84 1.84 -1.84 1.85 -1.85 -1.85 1.85 -1.84zm-8.41 0l1.85 1.84 -1.85 1.85 -1.84 -1.85 1.84 -1.84zm4.21 4.2l1.84 1.85 -1.84 1.84 -1.85 -1.84 1.85 -1.85zm9.81 1.4l1.84 1.85 -1.84 1.84 -1.85 -1.84 1.85 -1.85zm4.2 4.21l1.84 1.84 -1.84 1.85 -1.85 -1.85 1.85 -1.84zm-8.41 0l1.85 1.84 -1.85 1.85 -1.84 -1.85 1.84 -1.84zm4.21 4.2l1.84 1.84 -1.84 1.85 -1.85 -1.85 1.85 -1.84zm10.91 -2.36l8.7 8.7 8.7 -8.7 -8.7 -8.7 -8.7 8.7zm-1.11 1.11l8.71 8.7 -8.71 8.7 -8.7 -8.7 8.7 -8.7zm0 2.65l1.85 1.85 -1.85 1.84 -1.84 -1.84 1.84 -1.85zm4.21 4.21l1.84 1.84 -1.84 1.85 -1.85 -1.85 1.85 -1.84zm-8.41 0l1.85 1.84 -1.85 1.85 -1.84 -1.85 1.84 -1.84zm4.2 4.2l1.85 1.84 -1.85 1.85 -1.84 -1.85 1.84 -1.84zm-49.04 -77.07l1.85 1.85 -1.85 1.84 -1.84 -1.84 1.84 -1.85zm4.2 4.21l1.85 1.84 -1.85 1.85 -1.84 -1.85 1.84 -1.84zm-8.4 0l1.84 1.84 -1.84 1.85 -1.84 -1.85 1.84 -1.84zm4.2 4.2l1.85 1.84 -1.85 1.85 -1.84 -1.85 1.84 -1.84zm18.51 7.45l-8.7 -8.7 -4.35 4.35 -4.35 4.35 4.35 4.35 4.35 4.35 8.7 -8.7zm-8.7 -6.05l1.85 1.85 -1.85 1.84 -1.84 -1.84 1.84 -1.85zm4.2 4.21l1.85 1.84 -1.85 1.85 -1.84 -1.85 1.84 -1.84zm-8.4 0l1.84 1.84 -1.84 1.85 -1.85 -1.85 1.85 -1.84zm4.2 4.2l1.85 1.84 -1.85 1.85 -1.84 -1.85 1.84 -1.84zm9.81 16.15l8.7 -8.7 -7.82 -7.82 -0.88 -0.88 -8.7 8.7 8.7 8.7zm1.11 -18.51l4.35 4.35 4.35 4.35 8.7 -8.7 -8.7 -8.7 -4.35 4.35 -4.35 4.35zm5.8 13.82l-5.8 5.8 8.7 8.7 5.8 -5.8 2.9 -2.9 -8.7 -8.71 -2.9 2.91zm-6.91 -10.06l1.84 1.85 -1.84 1.84 -1.85 -1.84 1.85 -1.85zm4.2 4.2l1.85 1.85 -1.85 1.84 -1.84 -1.84 1.84 -1.85zm-8.4 0l1.84 1.85 -1.84 1.84 -1.85 -1.84 1.85 -1.85zm4.2 4.21l1.84 1.84 -1.84 1.85 -1.85 -1.85 1.85 -1.84zm10.91 -2.36l8.71 8.7 8.7 -8.7 -8.7 -8.7 -8.71 8.7zm8.71 10.91l-8.71 8.71 8.71 8.7 8.7 -8.7 -8.7 -8.71zm-9.81 -7.15l1.84 1.84 -1.84 1.85 -1.85 -1.85 1.85 -1.84zm4.2 4.2l1.84 1.85 -1.84 1.84 -1.85 -1.84 1.85 -1.85zm-8.41 0l1.85 1.85 -1.85 1.84 -1.84 -1.84 1.84 -1.85zm4.21 4.2l1.84 1.85 -1.84 1.84 -1.85 -1.84 1.85 -1.85zm15.26 2l4.35 4.35 3.95 -3.95 4.76 -4.75 -8.71 -8.71 -8.7 8.71 4.35 4.35zm-5.45 -0.59l1.84 1.84 -1.84 1.85 -1.85 -1.85 1.85 -1.84zm4.2 4.2l1.84 1.85 -1.84 1.84 -1.85 -1.84 1.85 -1.85zm-8.41 0l1.85 1.85 -1.85 1.84 -1.84 -1.84 1.84 -1.85zm4.21 4.2l1.84 1.85 -1.84 1.84 -1.85 -1.84 1.85 -1.85zm18.51 7.45l-8.71 -8.7 -8.7 8.7 4.35 4.35 4.35 4.36 8.71 -8.71zm-8.71 -6.04l1.85 1.84 -1.85 1.85 -1.84 -1.85 1.84 -1.84zm4.21 4.2l1.84 1.84 -1.84 1.85 -1.85 -1.85 1.85 -1.84zm-8.41 0l1.85 1.84 -1.85 1.85 -1.84 -1.85 1.84 -1.84zm4.2 4.2l1.85 1.85 -1.85 1.84 -1.84 -1.84 1.84 -1.85zm9.81 1.4l1.85 1.85 -1.85 1.84 -1.84 -1.84 1.84 -1.85zm4.2 4.21l1.85 1.84 -1.85 1.85 -1.84 -1.85 1.84 -1.84zm-8.4 0l1.84 1.84 -1.84 1.85 -1.84 -1.85 1.84 -1.84zm4.2 4.2l1.85 1.84 -1.85 1.85 -1.84 -1.85 1.84 -1.84zm-40.34 -71.02l-8.7 -8.7 -8.7 8.7 8.7 8.71 8.7 -8.71zm-8.7 -6.04l1.85 1.84 -1.85 1.85 -1.84 -1.85 1.84 -1.84zm4.2 4.2l1.85 1.84 -1.85 1.85 -1.84 -1.85 1.84 -1.84zm-8.4 0l1.84 1.84 -1.84 1.85 -1.85 -1.85 1.85 -1.84zm4.2 4.2l1.85 1.85 -1.85 1.84 -1.84 -1.84 1.84 -1.85zm9.81 16.15l0.88 -0.88 7.82 -7.82 -8.7 -8.7 -8.7 8.7 8.7 8.7zm1.11 -18.51l4.35 4.35 4.35 4.36 8.7 -8.71 -2.9 -2.9 -5.8 -5.8 -8.7 8.7zm-1.11 3.76l1.84 1.85 -1.84 1.84 -1.85 -1.84 1.85 -1.85zm4.2 4.21l1.85 1.84 -1.85 1.85 -1.84 -1.85 1.84 -1.84zm-8.4 0l1.84 1.84 -1.84 1.85 -1.85 -1.85 1.85 -1.84zm4.2 4.2l1.84 1.84 -1.84 1.85 -1.85 -1.85 1.85 -1.84zm10.91 -2.36l8.71 8.7 8.7 -8.7 -8.7 -8.7 -8.71 8.7zm-1.1 3.76l1.84 1.85 -1.84 1.84 -1.85 -1.84 1.85 -1.85zm4.2 4.21l1.84 1.84 -1.84 1.85 -1.85 -1.85 1.85 -1.84zm-8.41 0l1.85 1.84 -1.85 1.85 -1.84 -1.85 1.84 -1.84zm4.21 4.2l1.84 1.84 -1.84 1.85 -1.85 -1.85 1.85 -1.84zm9.81 1.4l1.84 1.85 -1.84 1.84 -1.85 -1.84 1.85 -1.85zm4.2 4.2l1.84 1.85 -1.84 1.84 -1.85 -1.84 1.85 -1.85zm-8.41 0l1.85 1.85 -1.85 1.84 -1.84 -1.84 1.84 -1.85zm4.21 4.21l1.84 1.84 -1.84 1.85 -1.85 -1.85 1.85 -1.84zm10.91 -2.36l8.7 8.7 8.7 -8.7 -8.7 -8.7 -8.7 8.7zm-1.11 3.76l1.85 1.84 -1.85 1.85 -1.84 -1.85 1.84 -1.84zm4.21 4.2l1.84 1.85 -1.84 1.84 -1.85 -1.84 1.85 -1.85zm-8.41 0l1.85 1.85 -1.85 1.84 -1.84 -1.84 1.84 -1.85zm4.2 4.2l1.85 1.85 -1.85 1.84 -1.84 -1.84 1.84 -1.85zm9.81 16.16l8.7 -8.7 -8.7 -8.71 -8.7 8.71 8.7 8.7zm0 -14.75l1.85 1.84 -1.85 1.85 -1.84 -1.85 1.84 -1.84zm4.2 4.2l1.85 1.85 -1.85 1.84 -1.84 -1.84 1.84 -1.85zm-8.4 0l1.84 1.85 -1.84 1.84 -1.84 -1.84 1.84 -1.85zm4.2 4.2l1.85 1.85 -1.85 1.84 -1.84 -1.84 1.84 -1.85zm18.51 7.45l-8.7 -8.7 -4.35 4.35 -4.35 4.35 8.7 8.71 8.7 -8.71zm-8.7 -6.04l1.85 1.84 -1.85 1.85 -1.84 -1.85 1.84 -1.84zm4.2 4.2l1.85 1.84 -1.85 1.85 -1.84 -1.85 1.84 -1.84zm-8.4 0l1.84 1.84 -1.84 1.85 -1.85 -1.85 1.85 -1.84zm4.2 4.2l1.85 1.85 -1.85 1.84 -1.84 -1.84 1.84 -1.85zm-49.04 -62.31l8.7 -8.7 -8.7 -8.71 -8.7 8.71 8.7 8.7zm1.11 -18.51l6.17 6.17 2.53 2.53 1.6 -1.6 7.1 -7.1 -8.7 -8.71 -8.7 8.71zm-1.11 3.76l1.84 1.84 -1.84 1.85 -1.85 -1.85 1.85 -1.84zm4.2 4.2l1.85 1.85 -1.85 1.84 -1.84 -1.84 1.84 -1.85zm-8.4 0l1.84 1.85 -1.84 1.84 -1.85 -1.84 1.85 -1.85zm4.2 4.2l1.84 1.85 -1.84 1.84 -1.85 -1.84 1.85 -1.85zm10.91 -2.35l8.71 8.7 8.7 -8.7 0 0 -8.7 -8.71 -8.71 8.71zm-1.1 3.76l1.84 1.84 -1.84 1.85 -1.85 -1.85 1.85 -1.84zm4.2 4.2l1.84 1.84 -1.84 1.85 -1.85 -1.85 1.85 -1.84zm-8.41 0l1.85 1.84 -1.85 1.85 -1.84 -1.85 1.84 -1.84zm4.21 4.2l1.84 1.85 -1.84 1.84 -1.85 -1.84 1.85 -1.85zm9.81 1.4l1.84 1.85 -1.84 1.84 -1.85 -1.84 1.85 -1.85zm4.2 4.21l1.84 1.84 -1.84 1.85 -1.85 -1.85 1.85 -1.84zm-8.41 0l1.85 1.84 -1.85 1.85 -1.84 -1.85 1.84 -1.84zm4.21 4.2l1.84 1.84 -1.84 1.85 -1.85 -1.85 1.85 -1.84zm18.51 7.45l0 0 -8.71 -8.7 0 0 -8.7 8.7 8.7 8.7 8.71 -8.7zm-8.71 -6.05l1.85 1.85 -1.85 1.84 -1.84 -1.84 1.84 -1.85zm4.21 4.21l1.84 1.84 -1.84 1.85 -1.85 -1.85 1.85 -1.84zm-8.41 0l1.85 1.84 -1.85 1.85 -1.84 -1.85 1.84 -1.84zm4.2 4.2l1.85 1.84 -1.85 1.85 -1.84 -1.85 1.84 -1.84zm9.81 1.4l1.85 1.85 -1.85 1.84 -1.84 -1.84 1.84 -1.85zm4.2 4.2l1.85 1.85 -1.85 1.84 -1.84 -1.84 1.84 -1.85zm-8.4 0l1.84 1.85 -1.84 1.84 -1.84 -1.84 1.84 -1.85zm4.2 4.21l1.85 1.84 -1.85 1.85 -1.84 -1.85 1.84 -1.84zm9.81 16.15l8.7 -8.7 -6.52 -6.53 -2.18 -2.18 -8.7 8.71 4.35 4.35 4.35 4.35zm1.11 -18.51l8.7 8.7 8.7 -8.7 -8.7 -8.7 -4.35 4.35 -4.35 4.35zm-1.11 3.76l1.85 1.84 -1.85 1.85 -1.84 -1.85 1.84 -1.84zm4.2 4.2l1.85 1.85 -1.85 1.84 -1.84 -1.84 1.84 -1.85zm-8.4 0l1.84 1.85 -1.84 1.84 -1.85 -1.84 1.85 -1.85zm4.2 4.2l1.85 1.85 -1.85 1.84 -1.84 -1.84 1.84 -1.85zm13.45 0.18l6.17 6.17 8.7 -8.7 -8.7 -8.71 -4.35 4.36 -4.35 4.35 2.53 2.53zm-3.64 -1.43l8.7 8.71 -8.7 8.7 -8.7 -8.7 8.7 -8.71zm0 2.66l1.84 1.84 -1.84 1.85 -1.85 -1.85 1.85 -1.84zm4.2 4.2l1.85 1.85 -1.85 1.84 -1.84 -1.84 1.84 -1.85zm-8.4 0l1.84 1.85 -1.84 1.84 -1.85 -1.84 1.85 -1.85zm4.2 4.2l1.84 1.85 -1.84 1.84 -1.85 -1.84 1.85 -1.85zm-47.94 -80.82l8.71 8.7 8.7 -8.7 -8.7 -8.7 -8.71 8.7zm-1.1 3.76l1.84 1.84 -1.84 1.85 -1.85 -1.85 1.85 -1.84zm4.2 4.2l1.84 1.85 -1.84 1.84 -1.85 -1.84 1.85 -1.85zm-8.41 0l1.85 1.85 -1.85 1.84 -1.84 -1.84 1.84 -1.85zm4.21 4.2l1.84 1.85 -1.84 1.84 -1.85 -1.84 1.85 -1.85zm19.61 8.56l-4.35 4.35 -4.35 4.35 8.7 8.71 8.71 -8.71 -4.76 -4.75 -3.95 -3.95zm-9.8 -7.15l1.84 1.84 -1.84 1.85 -1.85 -1.85 1.85 -1.84zm4.2 4.2l1.84 1.85 -1.84 1.84 -1.85 -1.84 1.85 -1.85zm-8.41 0l1.85 1.85 -1.85 1.84 -1.84 -1.84 1.84 -1.85zm4.21 4.2l1.84 1.85 -1.84 1.84 -1.85 -1.84 1.85 -1.85zm19.61 8.56l-8.7 8.7 8.7 8.7 8.7 -8.7 -8.7 -8.7zm-9.81 -7.15l1.85 1.84 -1.85 1.85 -1.84 -1.85 1.84 -1.84zm4.21 4.2l1.84 1.84 -1.84 1.85 -1.85 -1.85 1.85 -1.84zm-8.41 0l1.85 1.84 -1.85 1.85 -1.84 -1.85 1.84 -1.84zm4.2 4.2l1.85 1.85 -1.85 1.84 -1.84 -1.84 1.84 -1.85zm9.81 1.4l1.85 1.85 -1.85 1.84 -1.84 -1.84 1.84 -1.85zm4.2 4.21l1.85 1.84 -1.85 1.85 -1.84 -1.85 1.84 -1.84zm-8.4 0l1.84 1.84 -1.84 1.85 -1.84 -1.85 1.84 -1.84zm4.2 4.2l1.85 1.84 -1.85 1.85 -1.84 -1.85 1.84 -1.84zm13.76 12.2l4.75 -4.75 -4.35 -4.35 -4.35 -4.35 -8.7 8.7 8.7 8.7 3.95 -3.95zm-3.95 -10.8l1.85 1.85 -1.85 1.84 -1.84 -1.84 1.84 -1.85zm4.2 4.21l1.85 1.84 -1.85 1.85 -1.84 -1.85 1.84 -1.84zm-8.4 0l1.84 1.84 -1.84 1.85 -1.85 -1.85 1.85 -1.84zm4.2 4.2l1.85 1.84 -1.85 1.85 -1.84 -1.85 1.84 -1.84zm9.81 1.4l1.84 1.85 -1.84 1.84 -1.85 -1.84 1.85 -1.85zm4.2 4.2l1.85 1.85 -1.85 1.84 -1.84 -1.84 1.84 -1.85zm-8.4 0l1.84 1.85 -1.84 1.84 -1.85 -1.84 1.85 -1.85zm4.2 4.21l1.84 1.84 -1.84 1.85 -1.85 -1.85 1.85 -1.84zm10.91 -2.36l8.71 8.7 8.7 -8.7 -8.7 -8.7 -4.36 4.35 -4.35 4.35zm-1.1 3.76l1.84 1.84 -1.84 1.85 -1.85 -1.85 1.85 -1.84zm4.2 4.2l1.84 1.85 -1.84 1.84 -1.85 -1.84 1.85 -1.85zm-8.4 0l1.84 1.85 -1.84 1.84 -1.85 -1.84 1.85 -1.85zm4.2 4.2l1.84 1.85 -1.84 1.84 -1.85 -1.84 1.85 -1.85zm-49.04 -77.06l1.84 1.85 -1.84 1.84 -1.85 -1.84 1.85 -1.85zm4.2 4.2l1.84 1.85 -1.84 1.84 -1.85 -1.84 1.85 -1.85zm-8.41 0l1.85 1.85 -1.85 1.84 -1.84 -1.84 1.84 -1.85zm4.21 4.21l1.84 1.84 -1.84 1.85 -1.85 -1.85 1.85 -1.84zm9.8 16.15l8.71 -8.7 -8.71 -8.71 -4.35 4.36 -4.35 4.35 8.7 8.7zm0 -14.75l1.85 1.84 -1.85 1.85 -1.84 -1.85 1.84 -1.84zm4.21 4.2l1.84 1.85 -1.84 1.84 -1.85 -1.84 1.85 -1.85zm-8.41 0l1.85 1.85 -1.85 1.84 -1.84 -1.84 1.84 -1.85zm4.2 4.2l1.85 1.85 -1.85 1.84 -1.84 -1.84 1.84 -1.85zm9.81 16.16l8.7 -8.7 -8.7 -8.71 -8.7 8.71 8.7 8.7zm0 -14.75l1.85 1.84 -1.85 1.85 -1.84 -1.85 1.84 -1.84zm4.2 4.2l1.85 1.85 -1.85 1.84 -1.84 -1.84 1.84 -1.85zm-8.4 0l1.84 1.85 -1.84 1.84 -1.84 -1.84 1.84 -1.85zm4.2 4.2l1.85 1.85 -1.85 1.84 -1.84 -1.84 1.84 -1.85zm11.8 14.17l6.71 -6.72 -8.7 -8.7 -4.35 4.35 -4.35 4.35 8.7 8.71 1.99 -1.99zm7.82 -5.61l-8.7 8.7 8.7 8.7 8.7 -8.7 -8.7 -8.7zm-9.81 -7.15l1.85 1.84 -1.85 1.85 -1.84 -1.85 1.84 -1.84zm4.2 4.2l1.85 1.84 -1.85 1.85 -1.84 -1.85 1.84 -1.84zm-8.4 0l1.84 1.84 -1.84 1.85 -1.85 -1.85 1.85 -1.84zm4.2 4.2l1.85 1.85 -1.85 1.84 -1.84 -1.84 1.84 -1.85zm9.81 1.4l1.84 1.85 -1.84 1.84 -1.85 -1.84 1.85 -1.85zm4.2 4.21l1.85 1.84 -1.85 1.85 -1.84 -1.85 1.84 -1.84zm-8.4 0l1.84 1.84 -1.84 1.85 -1.85 -1.85 1.85 -1.84zm4.2 4.2l1.84 1.84 -1.84 1.85 -1.85 -1.85 1.85 -1.84zm9.81 16.15l8.7 -8.7 -8.7 -8.7 -8.7 8.7 8.7 8.7zm0 -14.75l1.84 1.85 -1.84 1.84 -1.85 -1.84 1.85 -1.85zm4.2 4.21l1.84 1.84 -1.84 1.85 -1.85 -1.85 1.85 -1.84zm-8.4 0l1.84 1.84 -1.84 1.85 -1.85 -1.85 1.85 -1.84zm4.2 4.2l1.84 1.84 -1.84 1.85 -1.85 -1.85 1.85 -1.84zm9.81 1.4l1.84 1.85 -1.84 1.84 -1.85 -1.84 1.85 -1.85zm4.2 4.2l1.84 1.85 -1.84 1.84 -1.85 -1.84 1.85 -1.85zm-8.41 0l1.85 1.85 -1.85 1.84 -1.84 -1.84 1.84 -1.85zm4.21 4.21l1.84 1.84 -1.84 1.85 -1.85 -1.85 1.85 -1.84zm-39.24 -69.91l-8.7 8.7 8.7 8.7 8.7 -8.7 -8.7 -8.7zm-9.81 -9.81l8.71 8.7 -8.71 8.7 -8.7 -8.7 8.7 -8.7zm0 2.65l1.85 1.85 -1.85 1.84 -1.84 -1.84 1.84 -1.85zm4.21 4.21l1.84 1.84 -1.84 1.85 -1.85 -1.85 1.85 -1.84zm-8.41 0l1.85 1.84 -1.85 1.85 -1.84 -1.85 1.84 -1.84zm4.2 4.2l1.85 1.84 -1.85 1.85 -1.84 -1.85 1.84 -1.84zm9.81 1.4l1.85 1.85 -1.85 1.84 -1.84 -1.84 1.84 -1.85zm4.2 4.2l1.85 1.85 -1.85 1.84 -1.84 -1.84 1.84 -1.85zm-8.4 0l1.84 1.85 -1.84 1.84 -1.84 -1.84 1.84 -1.85zm4.2 4.21l1.85 1.84 -1.85 1.85 -1.84 -1.85 1.84 -1.84zm9.81 16.15l2.53 -2.53 6.17 -6.17 -8.7 -8.71m0 2.66l1.85 1.84 -1.85 1.85 -1.84 -1.85 1.84 -1.84zm4.2 4.2l1.85 1.85 -1.85 1.84 -1.84 -1.84 1.84 -1.85zm-8.4 0l1.84 1.85 -1.84 1.84 -1.85 -1.84 1.85 -1.85zm4.2 4.2l1.85 1.85 -1.85 1.84 -1.84 -1.84 1.84 -1.85zm19.62 8.56l-6.17 6.17 -2.53 2.53 4.35 4.35 4.35 4.36 8.7 -8.71 -8.7 -8.7zm-9.81 -9.81l8.7 8.71 -8.7 8.7 -8.7 -8.7 8.7 -8.71zm0 2.66l1.84 1.84 -1.84 1.85 -1.85 -1.85 1.85 -1.84zm4.2 4.2l1.85 1.85 -1.85 1.84 -1.84 -1.84 1.84 -1.85zm-8.4 0l1.84 1.85 -1.84 1.84 -1.85 -1.84 1.85 -1.85zm4.2 4.2l1.84 1.85 -1.84 1.84 -1.85 -1.84 1.85 -1.85zm19.62 8.56l-8.71 8.7 8.71 8.7 8.7 -8.7 -8.7 -8.7zm-9.81 -7.15l1.84 1.84 -1.84 1.85 -1.85 -1.85 1.85 -1.84zm4.2 4.2l1.84 1.84 -1.84 1.85 -1.85 -1.85 1.85 -1.84zm-8.4 0l1.84 1.84 -1.84 1.85 -1.85 -1.85 1.85 -1.84zm4.2 4.2l1.84 1.85 -1.84 1.84 -1.85 -1.84 1.85 -1.85zm9.81 1.4l1.84 1.85 -1.84 1.84 -1.85 -1.84 1.85 -1.85zm4.2 4.21l1.84 1.84 -1.84 1.85 -1.85 -1.85 1.85 -1.84zm-8.41 0l1.85 1.84 -1.85 1.85 -1.84 -1.85 1.84 -1.84zm14.01 5.6l1.85 1.85 -1.85 1.84 -1.84 -1.84 1.84 -1.85zm4.21 4.21l1.84 1.84 -1.84 1.85 -1.85 -1.85 1.85 -1.84zm-8.41 0l1.85 1.84 -1.85 1.85 -1.84 -1.85 1.84 -1.84zm4.2 4.2l1.85 1.84 -1.85 1.85 -1.84 -1.85 1.84 -1.84zm-9.8 -9.81l1.84 1.84 -1.84 1.85 -1.85 -1.85 1.85 -1.84zm9.8 -1.25l8.71 8.7 -8.71 8.7 -8.7 -8.7 8.7 -8.7z"/>
    </g>
   </g>
  </g>
  <polygon fill="none" stroke="#373435" stroke-width="0.09" stroke-miterlimit="2.61313" points="79.04,0.04 0.04,0.04 0.04,49.19 79.04,49.19 "/>
 </g>
</svg>
