<?xml version="1.0" encoding="UTF-8"?>
<!DOCTYPE svg PUBLIC "-//W3C//DTD SVG 1.1//EN" "http://www.w3.org/Graphics/SVG/1.1/DTD/svg11.dtd">
<!-- Creator: CorelDRAW -->
<svg xmlns="http://www.w3.org/2000/svg" xml:space="preserve" width="512px" height="512px" version="1.1" shape-rendering="geometricPrecision" text-rendering="geometricPrecision" image-rendering="optimizeQuality" fill-rule="evenodd" clip-rule="evenodd"
viewBox="0 0 324.69 324.69"
 xmlns:xlink="http://www.w3.org/1999/xlink"
 xmlns:xodm="http://www.corel.com/coreldraw/odm/2003">
 <g id="Layer_x0020_1">
  <metadata id="CorelCorpID_0Corel-Layer"/>
  <g id="_3082460612320">
   <path fill="#990000" d="M50.17 0l59.57 0 0 8.08 -53.98 0c-26.23,0 -47.68,21.46 -47.68,47.68l0 53.97 -8.08 0 0 -59.56c0,-27.59 22.57,-50.17 50.17,-50.17zm164.78 0l59.57 0c27.59,0 50.17,22.58 50.17,50.17l0 59.56 -8.09 0 0 -53.97c0,-26.22 -21.45,-47.68 -47.67,-47.68l-53.98 0 0 -8.08zm109.74 214.95l0 59.57c0,27.59 -22.58,50.17 -50.17,50.17l-59.57 0 0 -8.09 53.98 0c26.22,0 47.67,-21.45 47.67,-47.67l0 -53.98 8.09 0zm-214.95 109.74l-59.57 0c-27.6,0 -50.17,-22.58 -50.17,-50.17l0 -59.57 8.08 0 0 53.98c0,26.22 21.45,47.67 47.68,47.67l53.98 0 0 8.09z"/>
   <path fill="#FF6666" d="M55.76 8.08l53.98 0 0 7.16 -49.04 0c-25.01,0 -45.46,20.46 -45.46,45.46l0 49.03 -7.16 0 0 -53.97c0,-26.22 21.45,-47.68 47.68,-47.68zm159.19 0l53.98 0c26.22,0 47.67,21.46 47.67,47.68l0 53.97 -7.15 0 0 -49.03c0,-25 -20.46,-45.46 -45.46,-45.46l-49.04 0 0 -7.16zm101.65 206.87l0 53.98c0,26.22 -21.45,47.67 -47.67,47.67l-53.98 0 0 -7.15 49.04 0c25,0 45.46,-20.46 45.46,-45.46l0 -49.04 7.15 0zm-206.86 101.65l-53.98 0c-26.23,0 -47.68,-21.45 -47.68,-47.67l0 -53.98 7.16 0 0 49.04c0,25 20.45,45.46 45.46,45.46l49.04 0 0 7.15z"/>
  </g>
 </g>
</svg>
