<?xml version="1.0" encoding="UTF-8"?>
<!DOCTYPE svg PUBLIC "-//W3C//DTD SVG 1.1//EN" "http://www.w3.org/Graphics/SVG/1.1/DTD/svg11.dtd">
<!-- Creator: CorelDRAW -->
<svg xmlns="http://www.w3.org/2000/svg" xml:space="preserve" width="512px" height="512px" version="1.1" shape-rendering="geometricPrecision" text-rendering="geometricPrecision" image-rendering="optimizeQuality" fill-rule="evenodd" clip-rule="evenodd"
viewBox="0 0 510.32 510.32"
 xmlns:xlink="http://www.w3.org/1999/xlink"
 xmlns:xodm="http://www.corel.com/coreldraw/odm/2003">
 <g id="Layer_x0020_1">
  <metadata id="CorelCorpID_0Corel-Layer"/>
  <g id="_3081009079008">
   <path fill="#330099" d="M78.86 0l93.61 0 0 12.71 -84.84 0c-41.21,0 -74.92,33.71 -74.92,74.92l0 84.84 -12.71 0 0 -93.61c0,-43.38 35.48,-78.86 78.86,-78.86zm258.99 0l93.61 0c43.37,0 78.86,35.48 78.86,78.86l0 93.61 -12.71 0 0 -84.84c0,-41.21 -33.71,-74.92 -74.93,-74.92l-84.83 0 0 -12.71zm172.47 337.84l0 93.62c0,43.37 -35.49,78.86 -78.86,78.86l-93.61 0 0 -12.71 84.83 0c41.22,0 74.93,-33.71 74.93,-74.93l0 -84.84 12.71 0zm-337.85 172.48l-93.61 0c-43.38,0 -78.86,-35.49 -78.86,-78.86l0 -93.62 12.71 0 0 84.84c0,41.22 33.71,74.93 74.92,74.93l84.84 0 0 12.71z"/>
   <path fill="#6699FF" d="M87.63 12.71l84.84 0 0 11.24 -77.07 0c-39.3,0 -71.45,32.15 -71.45,71.45l0 77.07 -11.24 0 0 -84.84c0,-41.21 33.71,-74.92 74.92,-74.92zm250.22 0l84.83 0c41.22,0 74.93,33.71 74.93,74.92l0 84.84 -11.24 0 0 -77.07c0,-39.3 -32.16,-71.45 -71.46,-71.45l-77.06 0 0 -11.24zm159.76 325.13l0 84.84c0,41.22 -33.71,74.93 -74.93,74.93l-84.83 0 0 -11.24 77.06 0c39.3,0 71.46,-32.16 71.46,-71.46l0 -77.07 11.24 0zm-325.14 159.77l-84.84 0c-41.21,0 -74.92,-33.71 -74.92,-74.93l0 -84.84 11.24 0 0 77.07c0,39.3 32.15,71.46 71.45,71.46l77.07 0 0 11.24z"/>
  </g>
 </g>
</svg>
