<?xml version="1.0" encoding="UTF-8"?>
<!DOCTYPE svg PUBLIC "-//W3C//DTD SVG 1.1//EN" "http://www.w3.org/Graphics/SVG/1.1/DTD/svg11.dtd">
<!-- Creator: CorelDRAW -->
<svg xmlns="http://www.w3.org/2000/svg" xml:space="preserve" width="336px" height="113px" version="1.1" shape-rendering="geometricPrecision" text-rendering="geometricPrecision" image-rendering="optimizeQuality" fill-rule="evenodd" clip-rule="evenodd"
viewBox="0 0 334.32 112.51"
 xmlns:xlink="http://www.w3.org/1999/xlink"
 xmlns:xodm="http://www.corel.com/coreldraw/odm/2003">
 <g id="Layer_x0020_1">
  <metadata id="CorelCorpID_0Corel-Layer"/>
  <g id="_3121124439984">
   <polygon fill="#333333" stroke="#373435" stroke-width="0.9" stroke-miterlimit="2.61313" points="39.69,8.45 294.63,8.45 294.63,0.45 333.87,0.45 333.87,40.32 326.5,40.32 326.5,72.19 333.87,72.19 333.87,112.06 294.63,112.06 294.63,104.06 39.69,104.06 39.69,112.06 0.45,112.06 0.45,72.19 7.82,72.19 7.82,40.32 0.45,40.32 0.45,0.45 39.69,0.45 "/>
   <g>
    <rect fill="none" stroke="#B3B3B3" stroke-width="4.15" stroke-miterlimit="2.61313" x="281.84" y="20.69" width="26.46" height="26.46"/>
    <circle fill="#E6E6E6" cx="295.07" cy="33.92" r="6.62"/>
   </g>
   <rect fill="#1A1A1A" x="75.29" y="59.99" width="24.4" height="24.4"/>
   <g>
    <rect fill="none" stroke="#B3B3B3" stroke-width="4.15" stroke-miterlimit="2.61313" x="24.91" y="20.69" width="26.46" height="26.46"/>
    <circle fill="#E6E6E6" cx="38.14" cy="33.92" r="6.62"/>
   </g>
   <rect fill="#1A1A1A" x="107.16" y="59.99" width="24.4" height="24.4"/>
   <rect fill="#1A1A1A" x="139.02" y="59.99" width="24.4" height="24.4"/>
   <rect fill="#1A1A1A" x="170.89" y="59.99" width="24.4" height="24.4"/>
   <rect fill="#1A1A1A" x="202.76" y="59.99" width="24.4" height="24.4"/>
   <rect fill="#1A1A1A" x="234.63" y="59.99" width="24.4" height="24.4"/>
  </g>
 </g>
</svg>
