<?xml version="1.0" encoding="UTF-8"?>
<!DOCTYPE svg PUBLIC "-//W3C//DTD SVG 1.1//EN" "http://www.w3.org/Graphics/SVG/1.1/DTD/svg11.dtd">
<!-- Creator: CorelDRAW -->
<svg xmlns="http://www.w3.org/2000/svg" xml:space="preserve" width="97px" height="791px" version="1.1" shape-rendering="geometricPrecision" text-rendering="geometricPrecision" image-rendering="optimizeQuality" fill-rule="evenodd" clip-rule="evenodd"
viewBox="0 0 2.07 16.81"
 xmlns:xlink="http://www.w3.org/1999/xlink"
 xmlns:xodm="http://www.corel.com/coreldraw/odm/2003">
 <g id="Layer_x0020_1">
  <metadata id="CorelCorpID_0Corel-Layer"/>
  <g id="_1948033411520">
   <path fill="#333333" fill-rule="nonzero" d="M2.07 0.94l0 14.93c0,0.26 -0.07,0.49 -0.19,0.66 -0.13,0.17 -0.29,0.28 -0.47,0.28l-0.75 0c-0.18,0 -0.35,-0.11 -0.47,-0.28 -0.12,-0.17 -0.19,-0.4 -0.19,-0.66l0 -14.93c0,-0.26 0.07,-0.49 0.19,-0.66 0.12,-0.17 0.29,-0.28 0.47,-0.28l0.75 0c0.18,0 0.34,0.11 0.47,0.28 0.12,0.17 0.19,0.4 0.19,0.66zm-0.19 14.93l0 -14.93c0,-0.18 -0.05,-0.35 -0.14,-0.47 -0.08,-0.12 -0.2,-0.2 -0.33,-0.2l-0.75 0c-0.13,0 -0.25,0.08 -0.33,0.2 -0.09,0.12 -0.14,0.29 -0.14,0.47l0 14.93c0,0.18 0.05,0.35 0.14,0.47 0.08,0.12 0.2,0.2 0.33,0.2l0.75 0c0.13,0 0.25,-0.08 0.33,-0.2 0.09,-0.12 0.14,-0.29 0.14,-0.47z"/>
   <path fill="#4D4D4D" fill-rule="nonzero" d="M1.99 1.05l0 14.71c0,0.26 -0.07,0.49 -0.18,0.66 -0.11,0.17 -0.26,0.27 -0.43,0.27l-0.69 0c-0.17,0 -0.32,-0.1 -0.43,-0.27 -0.11,-0.17 -0.18,-0.4 -0.18,-0.66l0 -14.71c0,-0.26 0.07,-0.49 0.18,-0.66 0.11,-0.17 0.26,-0.27 0.43,-0.27l0.69 0c0.17,0 0.32,0.1 0.43,0.27 0.11,0.17 0.18,0.4 0.18,0.66zm-0.17 14.71l0 -14.71c0,-0.19 -0.05,-0.35 -0.13,-0.47 -0.08,-0.12 -0.19,-0.2 -0.31,-0.2l-0.69 0c-0.12,0 -0.23,0.08 -0.31,0.2 -0.08,0.12 -0.13,0.28 -0.13,0.47l0 14.71c0,0.18 0.05,0.35 0.13,0.47 0.08,0.12 0.19,0.2 0.31,0.2l0.69 0c0.12,0 0.23,-0.08 0.31,-0.2 0.08,-0.12 0.13,-0.29 0.13,-0.47z"/>
  </g>
 </g>
</svg>
