<?xml version="1.0" encoding="UTF-8"?>
<!DOCTYPE svg PUBLIC "-//W3C//DTD SVG 1.1//EN" "http://www.w3.org/Graphics/SVG/1.1/DTD/svg11.dtd">
<!-- Creator: CorelDRAW -->
<svg xmlns="http://www.w3.org/2000/svg" xml:space="preserve" width="791px" height="148px" version="1.1" shape-rendering="geometricPrecision" text-rendering="geometricPrecision" image-rendering="optimizeQuality" fill-rule="evenodd" clip-rule="evenodd"
viewBox="0 0 153.33 28.61"
 xmlns:xlink="http://www.w3.org/1999/xlink"
 xmlns:xodm="http://www.corel.com/coreldraw/odm/2003">
 <g id="Layer_x0020_1">
  <metadata id="CorelCorpID_0Corel-Layer"/>
  <g id="_2457118521008">
   <path fill="#996633" fill-rule="nonzero" d="M8.6 0l136.13 0c2.37,0 4.52,1.03 6.07,2.69 1.56,1.66 2.53,3.95 2.53,6.47l0 10.28c0,2.52 -0.97,4.81 -2.53,6.47 -1.55,1.67 -3.7,2.7 -6.07,2.7l-136.13 0c-2.37,0 -4.52,-1.03 -6.08,-2.7 -1.55,-1.66 -2.52,-3.95 -2.52,-6.47l0 -10.28c0,-2.52 0.97,-4.81 2.52,-6.47 1.56,-1.66 3.71,-2.69 6.08,-2.69zm136.13 2.62l-136.13 0c-1.69,0 -3.23,0.74 -4.34,1.92 -1.11,1.19 -1.8,2.83 -1.8,4.62l0 10.28c0,1.8 0.69,3.44 1.8,4.62 1.11,1.19 2.65,1.93 4.34,1.93l136.13 0c1.69,0 3.23,-0.74 4.34,-1.93 1.11,-1.18 1.8,-2.82 1.8,-4.62l0 -10.28c0,-1.79 -0.69,-3.43 -1.8,-4.62 -1.11,-1.18 -2.65,-1.92 -4.34,-1.92z"/>
   <path fill="#CC9933" fill-rule="nonzero" d="M9.55 1.08l134.23 0c2.33,0 4.45,0.95 5.98,2.49 1.54,1.53 2.49,3.65 2.49,5.98l0 9.5c0,2.34 -0.95,4.46 -2.49,5.99 -1.53,1.54 -3.65,2.49 -5.98,2.49l-134.23 0c-2.33,0 -4.45,-0.95 -5.98,-2.49 -1.54,-1.53 -2.49,-3.65 -2.49,-5.99l0 -9.5c0,-2.33 0.95,-4.45 2.49,-5.98 1.53,-1.54 3.65,-2.49 5.98,-2.49zm134.23 2.42l-134.23 0c-1.66,0 -3.17,0.68 -4.27,1.78 -1.1,1.1 -1.78,2.61 -1.78,4.27l0 9.5c0,1.67 0.68,3.18 1.78,4.28 1.1,1.1 2.61,1.78 4.27,1.78l134.23 0c1.66,0 3.17,-0.68 4.27,-1.78 1.1,-1.1 1.78,-2.61 1.78,-4.28l0 -9.5c0,-1.66 -0.68,-3.17 -1.78,-4.27 -1.1,-1.1 -2.61,-1.78 -4.27,-1.78z"/>
  </g>
 </g>
</svg>
