<?xml version="1.0" encoding="UTF-8"?>
<!DOCTYPE svg PUBLIC "-//W3C//DTD SVG 1.1//EN" "http://www.w3.org/Graphics/SVG/1.1/DTD/svg11.dtd">
<!-- Creator: CorelDRAW -->
<svg xmlns="http://www.w3.org/2000/svg" xml:space="preserve" width="408px" height="82px" version="1.1" shape-rendering="geometricPrecision" text-rendering="geometricPrecision" image-rendering="optimizeQuality" fill-rule="evenodd" clip-rule="evenodd"
viewBox="0 0 383.98 77.03"
 xmlns:xlink="http://www.w3.org/1999/xlink"
 xmlns:xodm="http://www.corel.com/coreldraw/odm/2003">
 <g id="Layer_x0020_1">
  <metadata id="CorelCorpID_0Corel-Layer"/>
  <path fill="#CCCC33" d="M45.03 7.51l316.35 0c12.43,0 22.6,10.17 22.6,22.59 0,12.43 -10.17,22.6 -22.6,22.6l-316.35 0c-12.43,0 -22.6,-10.17 -22.6,-22.6 0,-12.42 10.17,-22.59 22.6,-22.59zm0.58 5.04l315.19 0c9.66,0 17.55,7.9 17.55,17.55 0,9.66 -7.89,17.56 -17.55,17.56l-315.19 0c-9.66,0 -17.56,-7.9 -17.56,-17.56 0,-9.65 7.9,-17.55 17.56,-17.55z"/>
  <polygon fill="#FFCC00" points="19.47,0 0,35.55 22.01,35.55 9.31,77.03 54.18,23.7 25.4,23.7 44.87,0 "/>
 </g>
</svg>
