<?xml version="1.0" encoding="UTF-8"?>
<!DOCTYPE svg PUBLIC "-//W3C//DTD SVG 1.1//EN" "http://www.w3.org/Graphics/SVG/1.1/DTD/svg11.dtd">
<!-- Creator: CorelDRAW -->
<svg xmlns="http://www.w3.org/2000/svg" xml:space="preserve" width="176px" height="176px" version="1.1" shape-rendering="geometricPrecision" text-rendering="geometricPrecision" image-rendering="optimizeQuality" fill-rule="evenodd" clip-rule="evenodd"
viewBox="0 0 16.19 16.19"
 xmlns:xlink="http://www.w3.org/1999/xlink"
 xmlns:xodm="http://www.corel.com/coreldraw/odm/2003">
 <defs>
   <clipPath id="id0">
    <path d="M2.33 0.38l11.53 0c1.07,0 1.95,0.88 1.95,1.95l0 11.53c0,1.07 -0.88,1.95 -1.95,1.95l-11.53 0c-1.07,0 -1.95,-0.88 -1.95,-1.95l0 -11.53c0,-1.07 0.88,-1.95 1.95,-1.95z"/>
   </clipPath>
 </defs>
 <g id="Layer_x0020_1">
  <metadata id="CorelCorpID_0Corel-Layer"/>
  <path fill="#339966" d="M2.33 0.38l11.53 0c1.07,0 1.95,0.88 1.95,1.95l0 11.53c0,1.07 -0.88,1.95 -1.95,1.95l-11.53 0c-1.07,0 -1.95,-0.88 -1.95,-1.95l0 -11.53c0,-1.07 0.88,-1.95 1.95,-1.95z"/>
  <g clip-path="url(#id0)">
   <g id="_2689995865072">
    <polygon id="_1" fill="white" fill-opacity="0.250980" points="-5.87,9.17 22.38,9.17 22.38,17.11 -5.87,17.11 "/>
    <polygon fill="white" fill-opacity="0.200000" points="-0.71,-0.98 16.91,-0.98 16.91,17.18 -0.71,17.18 "/>
   </g>
  </g>
  <path fill="none" stroke="#008A45" stroke-width="0.77" stroke-miterlimit="2.61313" d="M2.33 0.38l11.53 0c1.07,0 1.95,0.88 1.95,1.95l0 11.53c0,1.07 -0.88,1.95 -1.95,1.95l-11.53 0c-1.07,0 -1.95,-0.88 -1.95,-1.95l0 -11.53c0,-1.07 0.88,-1.95 1.95,-1.95z"/>
 </g>
</svg>
