<?xml version="1.0" encoding="UTF-8"?>
<!DOCTYPE svg PUBLIC "-//W3C//DTD SVG 1.1//EN" "http://www.w3.org/Graphics/SVG/1.1/DTD/svg11.dtd">
<!-- Creator: CorelDRAW -->
<svg xmlns="http://www.w3.org/2000/svg" xml:space="preserve" width="176px" height="176px" version="1.1" shape-rendering="geometricPrecision" text-rendering="geometricPrecision" image-rendering="optimizeQuality" fill-rule="evenodd" clip-rule="evenodd"
viewBox="0 0 13.46 13.46"
 xmlns:xlink="http://www.w3.org/1999/xlink"
 xmlns:xodm="http://www.corel.com/coreldraw/odm/2003">
 <defs>
   <clipPath id="id0">
    <path d="M1.94 0.32l9.58 0c0.89,0 1.62,0.73 1.62,1.62l0 9.58c0,0.89 -0.73,1.62 -1.62,1.62l-9.58 0c-0.89,0 -1.62,-0.73 -1.62,-1.62l0 -9.58c0,-0.89 0.73,-1.62 1.62,-1.62z"/>
   </clipPath>
 </defs>
 <g id="Layer_x0020_1">
  <metadata id="CorelCorpID_0Corel-Layer"/>
  <path fill="#339966" d="M1.94 0.32l9.58 0c0.89,0 1.62,0.73 1.62,1.62l0 9.58c0,0.89 -0.73,1.62 -1.62,1.62l-9.58 0c-0.89,0 -1.62,-0.73 -1.62,-1.62l0 -9.58c0,-0.89 0.73,-1.62 1.62,-1.62z"/>
  <g clip-path="url(#id0)">
   <g id="_2689994196848">
    <polygon id="_1" fill="white" fill-opacity="0.250980" points="-4.87,7.62 18.6,7.62 18.6,14.22 -4.87,14.22 "/>
   </g>
  </g>
  <path fill="none" stroke="#006633" stroke-width="0.64" stroke-miterlimit="2.61313" d="M1.94 0.32l9.58 0c0.89,0 1.62,0.73 1.62,1.62l0 9.58c0,0.89 -0.73,1.62 -1.62,1.62l-9.58 0c-0.89,0 -1.62,-0.73 -1.62,-1.62l0 -9.58c0,-0.89 0.73,-1.62 1.62,-1.62z"/>
 </g>
</svg>
