<?xml version="1.0" encoding="UTF-8"?>
<!DOCTYPE svg PUBLIC "-//W3C//DTD SVG 1.1//EN" "http://www.w3.org/Graphics/SVG/1.1/DTD/svg11.dtd">
<!-- Creator: CorelDRAW -->
<svg xmlns="http://www.w3.org/2000/svg" xml:space="preserve" width="176px" height="176px" version="1.1" shape-rendering="geometricPrecision" text-rendering="geometricPrecision" image-rendering="optimizeQuality" fill-rule="evenodd" clip-rule="evenodd"
viewBox="0 0 20.33 20.33"
 xmlns:xlink="http://www.w3.org/1999/xlink"
 xmlns:xodm="http://www.corel.com/coreldraw/odm/2003">
 <defs>
   <clipPath id="id0">
    <path d="M2.93 0.48l14.47 0c1.35,0 2.45,1.1 2.45,2.45l0 14.47c0,1.35 -1.1,2.45 -2.45,2.45l-14.47 0c-1.35,0 -2.45,-1.1 -2.45,-2.45l0 -14.47c0,-1.35 1.1,-2.45 2.45,-2.45z"/>
   </clipPath>
 </defs>
 <g id="Layer_x0020_1">
  <metadata id="CorelCorpID_0Corel-Layer"/>
  <path fill="#339966" d="M2.93 0.48l14.47 0c1.35,0 2.45,1.1 2.45,2.45l0 14.47c0,1.35 -1.1,2.45 -2.45,2.45l-14.47 0c-1.35,0 -2.45,-1.1 -2.45,-2.45l0 -14.47c0,-1.35 1.1,-2.45 2.45,-2.45z"/>
  <g clip-path="url(#id0)">
   <g id="_2689994227232">
    <polygon id="_1" fill="white" fill-opacity="0.250980" points="-7.36,11.52 28.09,11.52 28.09,21.47 -7.36,21.47 "/>
    <polygon fill="black" fill-opacity="0.200000" points="-0.9,-1.24 21.22,-1.24 21.22,21.56 -0.9,21.56 "/>
   </g>
  </g>
  <path fill="none" stroke="#004F28" stroke-width="0.96" stroke-miterlimit="2.61313" d="M2.93 0.48l14.47 0c1.35,0 2.45,1.1 2.45,2.45l0 14.47c0,1.35 -1.1,2.45 -2.45,2.45l-14.47 0c-1.35,0 -2.45,-1.1 -2.45,-2.45l0 -14.47c0,-1.35 1.1,-2.45 2.45,-2.45z"/>
 </g>
</svg>
