<?xml version="1.0" encoding="UTF-8"?>
<!DOCTYPE svg PUBLIC "-//W3C//DTD SVG 1.1//EN" "http://www.w3.org/Graphics/SVG/1.1/DTD/svg11.dtd">
<!-- Creator: CorelDRAW -->
<svg xmlns="http://www.w3.org/2000/svg" xml:space="preserve" width="512px" height="512px" version="1.1" shape-rendering="geometricPrecision" text-rendering="geometricPrecision" image-rendering="optimizeQuality" fill-rule="evenodd" clip-rule="evenodd"
viewBox="0 0 162.79 162.79"
 xmlns:xlink="http://www.w3.org/1999/xlink"
 xmlns:xodm="http://www.corel.com/coreldraw/odm/2003">
 <defs>
    <clipPath id="id0">
     <path d="M33.07 45.79l106.83 0 0 91.56 -122.09 0 0 -76.3c0,-8.4 6.86,-15.26 15.26,-15.26z"/>
    </clipPath>
    <clipPath id="id1">
     <path d="M89.02 66.13l35.61 0 0 18.63 -35.61 0 0 -18.63z"/>
    </clipPath>
     <clipPath id="id2">
      <path d="M89.02 97.52l35.61 0 0 18.62 -35.61 0 0 -18.62z"/>
     </clipPath>
     <clipPath id="id3">
      <path d="M76.36 71.22l-40.69 0 0 40.7 40.69 0 0 -40.7z"/>
     </clipPath>
    <clipPath id="id4">
     <path d="M109.37 35.61l20.35 0c0,-6.78 0,-13.56 0,-20.35 -13.74,0.07 -20.4,6.97 -20.35,20.35z"/>
    </clipPath>
    <clipPath id="id5">
     <path d="M63.59 40.7l0 5.08 15.26 0 0 -5.08c-0.26,-10.91 -5.88,-15.36 -15.26,-15.26l0 15.26z"/>
    </clipPath>
    <clipPath id="id6">
     <path d="M63.59 23.73l-20.35 0 0 11.88 20.35 0 0 -11.88z"/>
    </clipPath>
 </defs>
 <g id="Layer_x0020_1">
  <metadata id="CorelCorpID_0Corel-Layer"/>
  <rect fill="none" width="162.79" height="162.79"/>
  <g id="_1958548467616">
   <path fill="#E02F2F" d="M33.07 45.79l106.83 0 0 91.56 -122.09 0 0 -76.3c0,-8.4 6.86,-15.26 15.26,-15.26z"/>
   <g clip-path="url(#id0)">
    <g>
     <rect fill="#BA2929" x="134.81" y="45.79" width="5.09" height="91.57"/>
    </g>
   </g>
   <path fill="none" d="M33.07 45.79l106.83 0 0 91.56 -122.09 0 0 -76.3c0,-8.4 6.86,-15.26 15.26,-15.26z"/>
   <rect fill="#BA2929" x="27.98" y="137.35" width="101.74" height="10.17"/>
   <polygon fill="#FF9933" points="89.02,66.13 124.63,66.13 124.63,84.76 89.02,84.76 "/>
   <g clip-path="url(#id1)">
    <g>
     <rect fill="#D47F2A" x="119.55" y="57.69" width="12.82" height="35.5"/>
    </g>
   </g>
   <polygon fill="none" points="89.02,66.13 124.63,66.13 124.63,84.76 89.02,84.76 "/>
   <g>
    <polygon fill="#FF9933" points="89.02,97.52 124.63,97.52 124.63,116.14 89.02,116.14 "/>
    <g clip-path="url(#id2)">
     <g>
      <rect fill="#D47F2A" x="119.55" y="87.57" width="10.17" height="38.51"/>
     </g>
    </g>
    <polygon fill="none" points="89.02,97.52 124.63,97.52 124.63,116.14 89.02,116.14 "/>
    <rect fill="#996633" x="91.99" y="101.66" width="15.02" height="2.82"/>
   </g>
   <g>
    <polygon fill="#FF9933" points="76.36,71.22 35.67,71.22 35.67,111.92 76.36,111.92 "/>
    <g clip-path="url(#id3)">
     <g>
      <rect fill="#D47F2A" x="71.34" y="60.43" width="11.27" height="61.66"/>
     </g>
    </g>
    <polygon fill="none" points="76.36,71.22 35.67,71.22 35.67,111.92 76.36,111.92 "/>
    <rect fill="#8C1E1E" x="33.07" y="77.57" width="2.6" height="8.91"/>
    <rect fill="#8C1E1E" x="33.07" y="97.29" width="2.6" height="8.91"/>
    <rect fill="#996633" x="64.74" y="86.48" width="2.84" height="9.54"/>
    <rect fill="#996633" x="38.26" y="100.05" width="20.13" height="3.39"/>
    <rect fill="#996633" x="38.26" y="105.97" width="20.13" height="3.39"/>
   </g>
   <rect fill="#8C1E1E" x="33.07" y="51.5" width="93.66" height="2.73"/>
   <rect fill="#8C1E1E" x="33.07" y="57.69" width="93.66" height="2.73"/>
   <rect fill="#BA2929" x="109.37" y="35.61" width="20.35" height="10.17"/>
   <path fill="#FF9933" d="M109.37 35.61l20.35 0c0,-6.78 0,-13.56 0,-20.35 -13.74,0.07 -20.4,6.97 -20.35,20.35z"/>
   <g clip-path="url(#id4)">
    <g>
     <rect fill="#D47F2A" x="124.97" y="7.68" width="12.82" height="35.5"/>
    </g>
   </g>
   <path fill="none" d="M109.37 35.61l20.35 0c0,-6.78 0,-13.56 0,-20.35 -13.74,0.07 -20.4,6.97 -20.35,20.35z"/>
   <polygon fill="#BA2929" points="139.9,35.61 129.72,35.61 129.72,15.26 144.98,15.26 "/>
   <path fill="#E02F2F" d="M63.59 40.7l0 5.08 15.26 0 0 -5.08c-0.26,-10.91 -5.88,-15.36 -15.26,-15.26l0 15.26z"/>
   <g clip-path="url(#id5)">
    <g>
     <path id="_1" fill="#BA2929" d="M75.35 45.78l0 -6.09c0.12,-6.59 -4.67,-11.88 -7.26,-13.89l7.94 -14.27 24.38 13.91 2.46 30.52 -20.26 8.14 -7.26 -18.32z"/>
    </g>
   </g>
   <path fill="none" d="M63.59 40.7l0 5.08 15.26 0 0 -5.08c-0.26,-10.91 -5.88,-15.36 -15.26,-15.26l0 15.26z"/>
   <polygon fill="#FF9933" points="63.59,23.73 43.24,23.73 43.24,35.61 63.59,35.61 "/>
   <g clip-path="url(#id6)">
    <g>
     <rect fill="#D47F2A" x="58.5" y="17.6" width="8.14" height="24.14"/>
    </g>
   </g>
   <polygon fill="none" points="63.59,23.73 43.24,23.73 43.24,35.61 63.59,35.61 "/>
   <rect fill="#8C1E1E" x="27.98" y="26.55" width="15.26" height="6.24"/>
   <rect fill="#541515" x="34.62" y="32.79" width="1.99" height="12.99"/>
  </g>
 </g>
</svg>
