<?xml version="1.0" encoding="UTF-8"?>
<!DOCTYPE svg PUBLIC "-//W3C//DTD SVG 1.1//EN" "http://www.w3.org/Graphics/SVG/1.1/DTD/svg11.dtd">
<!-- Creator: CorelDRAW -->
<svg xmlns="http://www.w3.org/2000/svg" xml:space="preserve" width="512px" height="512px" version="1.1" shape-rendering="geometricPrecision" text-rendering="geometricPrecision" image-rendering="optimizeQuality" fill-rule="evenodd" clip-rule="evenodd"
viewBox="0 0 162.79 162.79"
 xmlns:xlink="http://www.w3.org/1999/xlink"
 xmlns:xodm="http://www.corel.com/coreldraw/odm/2003">
 <g id="Layer_x0020_1">
  <metadata id="CorelCorpID_0Corel-Layer"/>
  <g id="_1677829671888">
   <rect fill="white" stroke="#4D4D4D" stroke-width="2.65" stroke-miterlimit="2.61313" x="28.82" y="39.33" width="105.15" height="84.12"/>
   <g>
    <polygon fill="#000066" stroke="#373435" stroke-width="0.29" stroke-miterlimit="2.61313" points="33.26,41.29 48.14,41.29 50.28,43.43 50.28,58.31 48.14,60.46 33.26,60.46 31.11,58.31 31.11,43.43 "/>
    <line fill="none" stroke="white" stroke-width="0.27" stroke-miterlimit="2.61313" x1="35.61" y1="41.29" x2="35.61" y2= "60.46" />
    <line fill="none" stroke="white" stroke-width="0.27" stroke-miterlimit="2.61313" x1="45.78" y1="41.29" x2="45.78" y2= "60.46" />
   </g>
   <g>
    <polygon fill="#000066" stroke="#373435" stroke-width="0.29" stroke-miterlimit="2.61313" points="53.6,41.29 68.49,41.29 70.63,43.43 70.63,58.31 68.49,60.46 53.6,60.46 51.46,58.31 51.46,43.43 "/>
    <line fill="none" stroke="white" stroke-width="0.27" stroke-miterlimit="2.61313" x1="55.96" y1="41.29" x2="55.96" y2= "60.46" />
    <line fill="none" stroke="white" stroke-width="0.27" stroke-miterlimit="2.61313" x1="66.13" y1="41.29" x2="66.13" y2= "60.46" />
   </g>
   <g>
    <polygon fill="#000066" stroke="#373435" stroke-width="0.29" stroke-miterlimit="2.61313" points="73.95,41.29 88.84,41.29 90.98,43.43 90.98,58.31 88.84,60.46 73.95,60.46 71.81,58.31 71.81,43.43 "/>
    <line fill="none" stroke="white" stroke-width="0.27" stroke-miterlimit="2.61313" x1="76.31" y1="41.29" x2="76.31" y2= "60.46" />
    <line fill="none" stroke="white" stroke-width="0.27" stroke-miterlimit="2.61313" x1="86.48" y1="41.29" x2="86.48" y2= "60.46" />
   </g>
   <g>
    <polygon fill="#000066" stroke="#373435" stroke-width="0.29" stroke-miterlimit="2.61313" points="94.3,41.29 109.18,41.29 111.33,43.43 111.33,58.31 109.18,60.46 94.3,60.46 92.16,58.31 92.16,43.43 "/>
    <line fill="none" stroke="white" stroke-width="0.27" stroke-miterlimit="2.61313" x1="96.66" y1="41.29" x2="96.66" y2= "60.46" />
    <line fill="none" stroke="white" stroke-width="0.27" stroke-miterlimit="2.61313" x1="106.83" y1="41.29" x2="106.83" y2= "60.46" />
   </g>
   <g>
    <polygon fill="#000066" stroke="#373435" stroke-width="0.29" stroke-miterlimit="2.61313" points="114.65,41.29 129.53,41.29 131.68,43.43 131.68,58.31 129.53,60.46 114.65,60.46 112.51,58.31 112.51,43.43 "/>
    <line fill="none" stroke="white" stroke-width="0.27" stroke-miterlimit="2.61313" x1="117" y1="41.29" x2="117" y2= "60.46" />
    <line fill="none" stroke="white" stroke-width="0.27" stroke-miterlimit="2.61313" x1="127.18" y1="41.29" x2="127.18" y2= "60.46" />
   </g>
   <g>
    <polygon fill="#000066" stroke="#373435" stroke-width="0.29" stroke-miterlimit="2.61313" points="33.26,61.63 48.14,61.63 50.28,63.78 50.28,78.66 48.14,80.81 33.26,80.81 31.11,78.66 31.11,63.78 "/>
    <line fill="none" stroke="white" stroke-width="0.27" stroke-miterlimit="2.61313" x1="35.61" y1="61.63" x2="35.61" y2= "80.81" />
    <line fill="none" stroke="white" stroke-width="0.27" stroke-miterlimit="2.61313" x1="45.78" y1="61.63" x2="45.78" y2= "80.81" />
   </g>
   <g>
    <polygon fill="#000066" stroke="#373435" stroke-width="0.29" stroke-miterlimit="2.61313" points="53.6,61.63 68.49,61.63 70.63,63.78 70.63,78.66 68.49,80.81 53.6,80.81 51.46,78.66 51.46,63.78 "/>
    <line fill="none" stroke="white" stroke-width="0.27" stroke-miterlimit="2.61313" x1="55.96" y1="61.63" x2="55.96" y2= "80.81" />
    <line fill="none" stroke="white" stroke-width="0.27" stroke-miterlimit="2.61313" x1="66.13" y1="61.63" x2="66.13" y2= "80.81" />
   </g>
   <g>
    <polygon fill="#000066" stroke="#373435" stroke-width="0.29" stroke-miterlimit="2.61313" points="73.95,61.63 88.84,61.63 90.98,63.78 90.98,78.66 88.84,80.81 73.95,80.81 71.81,78.66 71.81,63.78 "/>
    <line fill="none" stroke="white" stroke-width="0.27" stroke-miterlimit="2.61313" x1="76.31" y1="61.63" x2="76.31" y2= "80.81" />
    <line fill="none" stroke="white" stroke-width="0.27" stroke-miterlimit="2.61313" x1="86.48" y1="61.63" x2="86.48" y2= "80.81" />
   </g>
   <g>
    <polygon fill="#000066" stroke="#373435" stroke-width="0.29" stroke-miterlimit="2.61313" points="94.3,61.63 109.18,61.63 111.33,63.78 111.33,78.66 109.18,80.81 94.3,80.81 92.16,78.66 92.16,63.78 "/>
    <line fill="none" stroke="white" stroke-width="0.27" stroke-miterlimit="2.61313" x1="96.66" y1="61.63" x2="96.66" y2= "80.81" />
    <line fill="none" stroke="white" stroke-width="0.27" stroke-miterlimit="2.61313" x1="106.83" y1="61.63" x2="106.83" y2= "80.81" />
   </g>
   <g>
    <polygon fill="#000066" stroke="#373435" stroke-width="0.29" stroke-miterlimit="2.61313" points="114.65,61.63 129.53,61.63 131.68,63.78 131.68,78.66 129.53,80.81 114.65,80.81 112.51,78.66 112.51,63.78 "/>
    <line fill="none" stroke="white" stroke-width="0.27" stroke-miterlimit="2.61313" x1="117" y1="61.63" x2="117" y2= "80.81" />
    <line fill="none" stroke="white" stroke-width="0.27" stroke-miterlimit="2.61313" x1="127.18" y1="61.63" x2="127.18" y2= "80.81" />
   </g>
   <g>
    <polygon fill="#000066" stroke="#373435" stroke-width="0.29" stroke-miterlimit="2.61313" points="33.26,81.98 48.14,81.98 50.28,84.13 50.28,99.01 48.14,101.15 33.26,101.15 31.11,99.01 31.11,84.13 "/>
    <line fill="none" stroke="white" stroke-width="0.27" stroke-miterlimit="2.61313" x1="35.61" y1="81.98" x2="35.61" y2= "101.15" />
    <line fill="none" stroke="white" stroke-width="0.27" stroke-miterlimit="2.61313" x1="45.78" y1="81.98" x2="45.78" y2= "101.15" />
   </g>
   <g>
    <polygon fill="#000066" stroke="#373435" stroke-width="0.29" stroke-miterlimit="2.61313" points="53.6,81.98 68.49,81.98 70.63,84.13 70.63,99.01 68.49,101.15 53.6,101.15 51.46,99.01 51.46,84.13 "/>
    <line fill="none" stroke="white" stroke-width="0.27" stroke-miterlimit="2.61313" x1="55.96" y1="81.98" x2="55.96" y2= "101.15" />
    <line fill="none" stroke="white" stroke-width="0.27" stroke-miterlimit="2.61313" x1="66.13" y1="81.98" x2="66.13" y2= "101.15" />
   </g>
   <g>
    <polygon fill="#000066" stroke="#373435" stroke-width="0.29" stroke-miterlimit="2.61313" points="73.95,81.98 88.84,81.98 90.98,84.13 90.98,99.01 88.84,101.15 73.95,101.15 71.81,99.01 71.81,84.13 "/>
    <line fill="none" stroke="white" stroke-width="0.27" stroke-miterlimit="2.61313" x1="76.31" y1="81.98" x2="76.31" y2= "101.15" />
    <line fill="none" stroke="white" stroke-width="0.27" stroke-miterlimit="2.61313" x1="86.48" y1="81.98" x2="86.48" y2= "101.15" />
   </g>
   <g>
    <polygon fill="#000066" stroke="#373435" stroke-width="0.29" stroke-miterlimit="2.61313" points="94.3,81.98 109.18,81.98 111.33,84.13 111.33,99.01 109.18,101.15 94.3,101.15 92.16,99.01 92.16,84.13 "/>
    <line fill="none" stroke="white" stroke-width="0.27" stroke-miterlimit="2.61313" x1="96.66" y1="81.98" x2="96.66" y2= "101.15" />
    <line fill="none" stroke="white" stroke-width="0.27" stroke-miterlimit="2.61313" x1="106.83" y1="81.98" x2="106.83" y2= "101.15" />
   </g>
   <g>
    <polygon fill="#000066" stroke="#373435" stroke-width="0.29" stroke-miterlimit="2.61313" points="114.65,81.98 129.53,81.98 131.68,84.13 131.68,99.01 129.53,101.15 114.65,101.15 112.51,99.01 112.51,84.13 "/>
    <line fill="none" stroke="white" stroke-width="0.27" stroke-miterlimit="2.61313" x1="117" y1="81.98" x2="117" y2= "101.15" />
    <line fill="none" stroke="white" stroke-width="0.27" stroke-miterlimit="2.61313" x1="127.18" y1="81.98" x2="127.18" y2= "101.15" />
   </g>
   <g>
    <polygon fill="#000066" stroke="#373435" stroke-width="0.29" stroke-miterlimit="2.61313" points="33.26,102.33 48.14,102.33 50.28,104.48 50.28,119.36 48.14,121.5 33.26,121.5 31.11,119.36 31.11,104.48 "/>
    <line fill="none" stroke="white" stroke-width="0.27" stroke-miterlimit="2.61313" x1="35.61" y1="102.33" x2="35.61" y2= "121.5" />
    <line fill="none" stroke="white" stroke-width="0.27" stroke-miterlimit="2.61313" x1="45.78" y1="102.33" x2="45.78" y2= "121.5" />
   </g>
   <g>
    <polygon fill="#000066" stroke="#373435" stroke-width="0.29" stroke-miterlimit="2.61313" points="53.6,102.33 68.49,102.33 70.63,104.48 70.63,119.36 68.49,121.5 53.6,121.5 51.46,119.36 51.46,104.48 "/>
    <line fill="none" stroke="white" stroke-width="0.27" stroke-miterlimit="2.61313" x1="55.96" y1="102.33" x2="55.96" y2= "121.5" />
    <line fill="none" stroke="white" stroke-width="0.27" stroke-miterlimit="2.61313" x1="66.13" y1="102.33" x2="66.13" y2= "121.5" />
   </g>
   <g>
    <polygon fill="#000066" stroke="#373435" stroke-width="0.29" stroke-miterlimit="2.61313" points="73.95,102.33 88.84,102.33 90.98,104.48 90.98,119.36 88.84,121.5 73.95,121.5 71.81,119.36 71.81,104.48 "/>
    <line fill="none" stroke="white" stroke-width="0.27" stroke-miterlimit="2.61313" x1="76.31" y1="102.33" x2="76.31" y2= "121.5" />
    <line fill="none" stroke="white" stroke-width="0.27" stroke-miterlimit="2.61313" x1="86.48" y1="102.33" x2="86.48" y2= "121.5" />
   </g>
   <g>
    <polygon fill="#000066" stroke="#373435" stroke-width="0.29" stroke-miterlimit="2.61313" points="94.3,102.33 109.18,102.33 111.33,104.48 111.33,119.36 109.18,121.5 94.3,121.5 92.16,119.36 92.16,104.48 "/>
    <line fill="none" stroke="white" stroke-width="0.27" stroke-miterlimit="2.61313" x1="96.66" y1="102.33" x2="96.66" y2= "121.5" />
    <line fill="none" stroke="white" stroke-width="0.27" stroke-miterlimit="2.61313" x1="106.83" y1="102.33" x2="106.83" y2= "121.5" />
   </g>
   <g>
    <polygon fill="#000066" stroke="#373435" stroke-width="0.29" stroke-miterlimit="2.61313" points="114.65,102.33 129.53,102.33 131.68,104.48 131.68,119.36 129.53,121.5 114.65,121.5 112.51,119.36 112.51,104.48 "/>
    <line fill="none" stroke="white" stroke-width="0.27" stroke-miterlimit="2.61313" x1="117" y1="102.33" x2="117" y2= "121.5" />
    <line fill="none" stroke="white" stroke-width="0.27" stroke-miterlimit="2.61313" x1="127.18" y1="102.33" x2="127.18" y2= "121.5" />
   </g>
  </g>
  <rect fill="none" width="162.79" height="162.79"/>
 </g>
</svg>
