<?xml version="1.0" encoding="UTF-8"?>
<!DOCTYPE svg PUBLIC "-//W3C//DTD SVG 1.1//EN" "http://www.w3.org/Graphics/SVG/1.1/DTD/svg11.dtd">
<!-- Creator: CorelDRAW -->
<svg xmlns="http://www.w3.org/2000/svg" xml:space="preserve" width="339px" height="273px" version="1.1" shape-rendering="geometricPrecision" text-rendering="geometricPrecision" image-rendering="optimizeQuality" fill-rule="evenodd" clip-rule="evenodd"
viewBox="0 0 29.77 23.97"
 xmlns:xlink="http://www.w3.org/1999/xlink"
 xmlns:xodm="http://www.corel.com/coreldraw/odm/2003">
 <g id="Layer_x0020_1">
  <metadata id="CorelCorpID_0Corel-Layer"/>
  <g id="_1958165542768">
   <rect fill="white" stroke="#4D4D4D" stroke-width="0.73" stroke-miterlimit="2.61313" x="0.37" y="0.37" width="29.04" height="23.23"/>
   <g>
    <polygon fill="#000066" stroke="#373435" stroke-width="0.08" stroke-miterlimit="2.61313" points="1.59,0.9 5.7,0.9 6.29,1.5 6.29,5.61 5.7,6.2 1.59,6.2 1,5.61 1,1.5 "/>
    <line fill="none" stroke="white" stroke-width="0.07" stroke-miterlimit="2.61313" x1="2.24" y1="0.9" x2="2.24" y2= "6.2" />
    <line fill="none" stroke="white" stroke-width="0.07" stroke-miterlimit="2.61313" x1="5.05" y1="0.9" x2="5.05" y2= "6.2" />
   </g>
   <g>
    <polygon fill="#000066" stroke="#373435" stroke-width="0.08" stroke-miterlimit="2.61313" points="7.21,0.9 11.32,0.9 11.91,1.5 11.91,5.61 11.32,6.2 7.21,6.2 6.62,5.61 6.62,1.5 "/>
    <line fill="none" stroke="white" stroke-width="0.07" stroke-miterlimit="2.61313" x1="7.86" y1="0.9" x2="7.86" y2= "6.2" />
    <line fill="none" stroke="white" stroke-width="0.07" stroke-miterlimit="2.61313" x1="10.67" y1="0.9" x2="10.67" y2= "6.2" />
   </g>
   <g>
    <polygon fill="#000066" stroke="#373435" stroke-width="0.08" stroke-miterlimit="2.61313" points="12.83,0.9 16.94,0.9 17.53,1.5 17.53,5.61 16.94,6.2 12.83,6.2 12.24,5.61 12.24,1.5 "/>
    <line fill="none" stroke="white" stroke-width="0.07" stroke-miterlimit="2.61313" x1="13.48" y1="0.9" x2="13.48" y2= "6.2" />
    <line fill="none" stroke="white" stroke-width="0.07" stroke-miterlimit="2.61313" x1="16.29" y1="0.9" x2="16.29" y2= "6.2" />
   </g>
   <g>
    <polygon fill="#000066" stroke="#373435" stroke-width="0.08" stroke-miterlimit="2.61313" points="18.45,0.9 22.56,0.9 23.15,1.5 23.15,5.61 22.56,6.2 18.45,6.2 17.86,5.61 17.86,1.5 "/>
    <line fill="none" stroke="white" stroke-width="0.07" stroke-miterlimit="2.61313" x1="19.1" y1="0.9" x2="19.1" y2= "6.2" />
    <line fill="none" stroke="white" stroke-width="0.07" stroke-miterlimit="2.61313" x1="21.91" y1="0.9" x2="21.91" y2= "6.2" />
   </g>
   <g>
    <polygon fill="#000066" stroke="#373435" stroke-width="0.08" stroke-miterlimit="2.61313" points="24.07,0.9 28.18,0.9 28.77,1.5 28.77,5.61 28.18,6.2 24.07,6.2 23.48,5.61 23.48,1.5 "/>
    <line fill="none" stroke="white" stroke-width="0.07" stroke-miterlimit="2.61313" x1="24.72" y1="0.9" x2="24.72" y2= "6.2" />
    <line fill="none" stroke="white" stroke-width="0.07" stroke-miterlimit="2.61313" x1="27.53" y1="0.9" x2="27.53" y2= "6.2" />
   </g>
   <g>
    <polygon fill="#000066" stroke="#373435" stroke-width="0.08" stroke-miterlimit="2.61313" points="1.59,6.52 5.7,6.52 6.29,7.12 6.29,11.23 5.7,11.82 1.59,11.82 1,11.23 1,7.12 "/>
    <line fill="none" stroke="white" stroke-width="0.07" stroke-miterlimit="2.61313" x1="2.24" y1="6.52" x2="2.24" y2= "11.82" />
    <line fill="none" stroke="white" stroke-width="0.07" stroke-miterlimit="2.61313" x1="5.05" y1="6.52" x2="5.05" y2= "11.82" />
   </g>
   <g>
    <polygon fill="#000066" stroke="#373435" stroke-width="0.08" stroke-miterlimit="2.61313" points="7.21,6.52 11.32,6.52 11.91,7.12 11.91,11.23 11.32,11.82 7.21,11.82 6.62,11.23 6.62,7.12 "/>
    <line fill="none" stroke="white" stroke-width="0.07" stroke-miterlimit="2.61313" x1="7.86" y1="6.52" x2="7.86" y2= "11.82" />
    <line fill="none" stroke="white" stroke-width="0.07" stroke-miterlimit="2.61313" x1="10.67" y1="6.52" x2="10.67" y2= "11.82" />
   </g>
   <g>
    <polygon fill="#000066" stroke="#373435" stroke-width="0.08" stroke-miterlimit="2.61313" points="12.83,6.52 16.94,6.52 17.53,7.12 17.53,11.23 16.94,11.82 12.83,11.82 12.24,11.23 12.24,7.12 "/>
    <line fill="none" stroke="white" stroke-width="0.07" stroke-miterlimit="2.61313" x1="13.48" y1="6.52" x2="13.48" y2= "11.82" />
    <line fill="none" stroke="white" stroke-width="0.07" stroke-miterlimit="2.61313" x1="16.29" y1="6.52" x2="16.29" y2= "11.82" />
   </g>
   <g>
    <polygon fill="#000066" stroke="#373435" stroke-width="0.08" stroke-miterlimit="2.61313" points="18.45,6.52 22.56,6.52 23.15,7.12 23.15,11.23 22.56,11.82 18.45,11.82 17.86,11.23 17.86,7.12 "/>
    <line fill="none" stroke="white" stroke-width="0.07" stroke-miterlimit="2.61313" x1="19.1" y1="6.52" x2="19.1" y2= "11.82" />
    <line fill="none" stroke="white" stroke-width="0.07" stroke-miterlimit="2.61313" x1="21.91" y1="6.52" x2="21.91" y2= "11.82" />
   </g>
   <g>
    <polygon fill="#000066" stroke="#373435" stroke-width="0.08" stroke-miterlimit="2.61313" points="24.07,6.52 28.18,6.52 28.77,7.12 28.77,11.23 28.18,11.82 24.07,11.82 23.48,11.23 23.48,7.12 "/>
    <line fill="none" stroke="white" stroke-width="0.07" stroke-miterlimit="2.61313" x1="24.72" y1="6.52" x2="24.72" y2= "11.82" />
    <line fill="none" stroke="white" stroke-width="0.07" stroke-miterlimit="2.61313" x1="27.53" y1="6.52" x2="27.53" y2= "11.82" />
   </g>
   <g>
    <polygon fill="#000066" stroke="#373435" stroke-width="0.08" stroke-miterlimit="2.61313" points="1.59,12.14 5.7,12.14 6.29,12.74 6.29,16.85 5.7,17.44 1.59,17.44 1,16.85 1,12.74 "/>
    <line fill="none" stroke="white" stroke-width="0.07" stroke-miterlimit="2.61313" x1="2.24" y1="12.14" x2="2.24" y2= "17.44" />
    <line fill="none" stroke="white" stroke-width="0.07" stroke-miterlimit="2.61313" x1="5.05" y1="12.14" x2="5.05" y2= "17.44" />
   </g>
   <g>
    <polygon fill="#000066" stroke="#373435" stroke-width="0.08" stroke-miterlimit="2.61313" points="7.21,12.14 11.32,12.14 11.91,12.74 11.91,16.85 11.32,17.44 7.21,17.44 6.62,16.85 6.62,12.74 "/>
    <line fill="none" stroke="white" stroke-width="0.07" stroke-miterlimit="2.61313" x1="7.86" y1="12.14" x2="7.86" y2= "17.44" />
    <line fill="none" stroke="white" stroke-width="0.07" stroke-miterlimit="2.61313" x1="10.67" y1="12.14" x2="10.67" y2= "17.44" />
   </g>
   <g>
    <polygon fill="#000066" stroke="#373435" stroke-width="0.08" stroke-miterlimit="2.61313" points="12.83,12.14 16.94,12.14 17.53,12.74 17.53,16.85 16.94,17.44 12.83,17.44 12.24,16.85 12.24,12.74 "/>
    <line fill="none" stroke="white" stroke-width="0.07" stroke-miterlimit="2.61313" x1="13.48" y1="12.14" x2="13.48" y2= "17.44" />
    <line fill="none" stroke="white" stroke-width="0.07" stroke-miterlimit="2.61313" x1="16.29" y1="12.14" x2="16.29" y2= "17.44" />
   </g>
   <g>
    <polygon fill="#000066" stroke="#373435" stroke-width="0.08" stroke-miterlimit="2.61313" points="18.45,12.14 22.56,12.14 23.15,12.74 23.15,16.85 22.56,17.44 18.45,17.44 17.86,16.85 17.86,12.74 "/>
    <line fill="none" stroke="white" stroke-width="0.07" stroke-miterlimit="2.61313" x1="19.1" y1="12.14" x2="19.1" y2= "17.44" />
    <line fill="none" stroke="white" stroke-width="0.07" stroke-miterlimit="2.61313" x1="21.91" y1="12.14" x2="21.91" y2= "17.44" />
   </g>
   <g>
    <polygon fill="#000066" stroke="#373435" stroke-width="0.08" stroke-miterlimit="2.61313" points="24.07,12.14 28.18,12.14 28.77,12.74 28.77,16.85 28.18,17.44 24.07,17.44 23.48,16.85 23.48,12.74 "/>
    <line fill="none" stroke="white" stroke-width="0.07" stroke-miterlimit="2.61313" x1="24.72" y1="12.14" x2="24.72" y2= "17.44" />
    <line fill="none" stroke="white" stroke-width="0.07" stroke-miterlimit="2.61313" x1="27.53" y1="12.14" x2="27.53" y2= "17.44" />
   </g>
   <g>
    <polygon fill="#000066" stroke="#373435" stroke-width="0.08" stroke-miterlimit="2.61313" points="1.59,17.77 5.7,17.77 6.29,18.36 6.29,22.47 5.7,23.06 1.59,23.06 1,22.47 1,18.36 "/>
    <line fill="none" stroke="white" stroke-width="0.07" stroke-miterlimit="2.61313" x1="2.24" y1="17.77" x2="2.24" y2= "23.06" />
    <line fill="none" stroke="white" stroke-width="0.07" stroke-miterlimit="2.61313" x1="5.05" y1="17.77" x2="5.05" y2= "23.06" />
   </g>
   <g>
    <polygon fill="#000066" stroke="#373435" stroke-width="0.08" stroke-miterlimit="2.61313" points="7.21,17.77 11.32,17.77 11.91,18.36 11.91,22.47 11.32,23.06 7.21,23.06 6.62,22.47 6.62,18.36 "/>
    <line fill="none" stroke="white" stroke-width="0.07" stroke-miterlimit="2.61313" x1="7.86" y1="17.77" x2="7.86" y2= "23.06" />
    <line fill="none" stroke="white" stroke-width="0.07" stroke-miterlimit="2.61313" x1="10.67" y1="17.77" x2="10.67" y2= "23.06" />
   </g>
   <g>
    <polygon fill="#000066" stroke="#373435" stroke-width="0.08" stroke-miterlimit="2.61313" points="12.83,17.77 16.94,17.77 17.53,18.36 17.53,22.47 16.94,23.06 12.83,23.06 12.24,22.47 12.24,18.36 "/>
    <line fill="none" stroke="white" stroke-width="0.07" stroke-miterlimit="2.61313" x1="13.48" y1="17.77" x2="13.48" y2= "23.06" />
    <line fill="none" stroke="white" stroke-width="0.07" stroke-miterlimit="2.61313" x1="16.29" y1="17.77" x2="16.29" y2= "23.06" />
   </g>
   <g>
    <polygon fill="#000066" stroke="#373435" stroke-width="0.08" stroke-miterlimit="2.61313" points="18.45,17.77 22.56,17.77 23.15,18.36 23.15,22.47 22.56,23.06 18.45,23.06 17.86,22.47 17.86,18.36 "/>
    <line fill="none" stroke="white" stroke-width="0.07" stroke-miterlimit="2.61313" x1="19.1" y1="17.77" x2="19.1" y2= "23.06" />
    <line fill="none" stroke="white" stroke-width="0.07" stroke-miterlimit="2.61313" x1="21.91" y1="17.77" x2="21.91" y2= "23.06" />
   </g>
   <g>
    <polygon fill="#000066" stroke="#373435" stroke-width="0.08" stroke-miterlimit="2.61313" points="24.07,17.77 28.18,17.77 28.77,18.36 28.77,22.47 28.18,23.06 24.07,23.06 23.48,22.47 23.48,18.36 "/>
    <line fill="none" stroke="white" stroke-width="0.07" stroke-miterlimit="2.61313" x1="24.72" y1="17.77" x2="24.72" y2= "23.06" />
    <line fill="none" stroke="white" stroke-width="0.07" stroke-miterlimit="2.61313" x1="27.53" y1="17.77" x2="27.53" y2= "23.06" />
   </g>
  </g>
 </g>
</svg>
